<?xml version="1.0" encoding="utf-8"?>
<!-- Generator: Adobe Illustrator 27.5.0, SVG Export Plug-In . SVG Version: 6.00 Build 0)  -->
<svg version="1.1" xmlns="http://www.w3.org/2000/svg" xmlns:xlink="http://www.w3.org/1999/xlink" x="0px" y="0px"
	 viewBox="0 0 500 500" style="enable-background:new 0 0 500 500;" xml:space="preserve">
<g id="BACKGROUND">
	<rect style="fill:#FFFFFF;" width="500" height="500"/>
	<rect style="fill:#FFFFFF;" width="500" height="500"/>
</g>
<g id="OBJECTS">
	<g>
		<path style="fill:#1D1D1B;" d="M275.371,370.408c1.986,0.98,4.087,1.728,6.224,2.301c14.198,3.81,30.676,3.586,43.477-4.344
			c0.141-0.088,0.285-0.138,0.425-0.159c-0.462-1.663-1.034-3.298-1.689-4.886c-2.763-6.697-6.942-12.651-10.814-18.732
			c-3.77-5.922-7.768-12.194-7.311-19.502c0.458-7.325,4.575-13.775,7.39-20.358c2.889-6.755,4.773-14.24,4.948-21.609
			c0.065-2.725-0.427-5.741-3.18-6.971c-1.416-0.633-3.014-0.905-4.543-1.105c-0.999-0.131-2.004-0.183-3.01-0.197
			c-3.083,3.075-5.466,6.756-7.038,10.816c-0.793,2.047-1.403,4.15-1.774,6.316c-0.36,2.101-0.488,4.249-0.634,6.373
			c-0.014,0.204-0.141,0.312-0.293,0.345c0.05,0.135,0.107,0.268,0.156,0.402c0.989,2.719,1.803,5.515,2.284,8.371
			c0.428,2.54,0.836,5.504,0.14,8.029c-0.699,2.535-2.747,4.229-5.445,3.917c-2.28-0.263-3.948-1.753-5.362-3.427
			c1.736,5.445,2.319,11.164,0.896,16.956c-0.182,0.742-0.394,1.473-0.621,2.199c0.776-0.489,1.571-0.933,2.439-1.317
			c1.365-0.604,2.792-1.1,4.212-1.553c2.94-0.938,6.017-1.647,9.119-1.53c1.001,0.038,0.968,1.748-0.022,1.76
			c-2.955,0.034-5.842,0.606-8.713,1.262c-2.57,0.588-5.089,1.57-7.478,2.705c-1.369,3.886-3.307,7.558-5.406,11.105
			c-1.382,2.335-2.88,4.597-4.302,6.907c-1.108,1.799-2.262,3.59-3.271,5.452l0.039,0.13c0.792,2.9,1.259,5.964,0.087,8.826
			c-0.147,0.358-0.47,0.409-0.726,0.284c-0.353,0.63-1.309,0.951-1.879,0.197c-1.143-1.512-2.135-3.133-3.023-4.81
			c0.005,0.141-0.009,0.288-0.064,0.442c-0.253,0.711-0.408,1.447-0.516,2.189c0.791,0.569,1.561,1.139,2.41,1.635
			C273.449,369.378,274.388,369.922,275.371,370.408z"/>
		<path style="fill:#1D1D1B;" d="M178.552,399.071c12.169,6.813,26.092,9.154,39.869,9.813c0.018-2.904,0.21-5.803,0.403-8.7
			c0.184-2.752,0.322-5.514,0.628-8.256c0.293-2.635,0.854-5.245,1.623-7.782c1.197-3.944,2.937-7.718,5.51-10.926
			c-0.631,0.039-1.262,0.073-1.891,0.12c-2.484,0.183-4.894,0.547-7.148,1.428c-3.012,1.977-6.207,3.648-9.619,4.639
			c-1.645,0.478-3.348,0.8-5.062,0.877c-1.587,0.071-3.263-0.165-4.313-1.489c-0.261-0.33-0.463-0.703-0.622-1.101
			c-0.808,0.194-1.631,0.281-2.475,0.273c-1.743-0.017-3.492-0.311-5.201-0.699c-0.563,0.651-1.383,1.08-2.074,1.601
			c-0.867,0.654-1.708,1.347-2.507,2.083c-1.572,1.449-3.029,3.1-4.206,4.887c-1.311,1.989-2.365,4.184-2.866,6.523
			c-0.243,1.135-0.389,2.294-0.425,3.454c-0.032,1.017,0.151,2.069,0.088,3.087C178.362,398.956,178.457,399.018,178.552,399.071z"
			/>
		<path style="fill:#1D1D1B;" d="M179.839,385.118c1.167-2.074,2.574-3.954,4.273-5.623c0.843-0.828,1.722-1.614,2.655-2.339
			c0.239-0.185,0.487-0.391,0.745-0.594c-1.484-0.438-2.942-0.97-4.337-1.64c-3.645-1.752-6.841-4.45-8.516-8.199
			c-0.935-2.092-1.352-4.382-1.629-6.646c-1.033,1.433-2.087,2.853-3.056,4.333c-1.385,2.114-2.755,4.268-3.903,6.522
			c-1.182,2.322-2.262,4.745-2.838,7.295c-0.514,2.277-0.721,4.594-0.702,6.923c3.77,5.422,9.277,9.91,14.71,13.146
			c-0.189-0.856-0.192-1.795-0.19-2.618c0.003-1.216,0.118-2.426,0.35-3.621C177.862,389.652,178.634,387.259,179.839,385.118z"/>
		<path style="fill:#1D1D1B;" d="M162.352,378.096c0.564-2.557,1.272-5.094,2.291-7.509c1.03-2.442,2.246-4.772,3.672-7.006
			c1.371-2.148,2.81-4.308,4.399-6.307c-0.172-1.618-0.345-3.236-0.572-4.849c-0.715-5.077-1.752-10.112-3.127-15.052
			c-0.52-1.87-1.102-3.722-1.713-5.564c0.349,5.558-0.937,11.214-2.678,16.439c-2.287,6.861-6.015,13.442-6.765,20.73
			c-0.558,5.423,1.032,10.452,3.83,14.908C161.684,381.942,161.933,379.997,162.352,378.096z"/>
		<path style="fill:#1D1D1B;" d="M163.554,344.598c0.109-0.361,0.199-0.727,0.301-1.09c-0.8,0.455-1.629,0.852-2.499,1.156
			c-2.038,0.714-4.172,1.037-6.319,1.188c-4.163,0.293-8.635,0.274-12.328-1.888c0.803,5.607,3.105,10.901,5.656,15.913
			c2.303,4.526,4.773,8.972,7.232,13.42c-0.239-2.643-0.005-5.32,0.571-7.917C157.765,358.178,161.427,351.639,163.554,344.598z"/>
		<path style="fill:#1D1D1B;" d="M153.928,283.179c3.665-4.021,8.177-7.372,12.832-9.991c5.506-3.097,11.386-5.427,17.514-6.963
			c1.45-0.363,2.913-0.654,4.38-0.915c-0.3-0.033-0.599-0.08-0.894-0.118c-0.691-0.089-1.38-0.186-2.068-0.293
			c-1.333-0.206-2.664-0.44-3.987-0.703c-9.04-1.792-18.022-4.912-25.866-9.815c-0.192,0.279-0.395,0.548-0.568,0.844
			c-2.69,4.597-2.9,10.149-2.614,15.333c0.162,2.937,0.466,5.864,0.571,8.804c0.006,0.174,0.01,0.349,0.015,0.523l0.049,0.099
			c0.145,0.328,0.253,0.684,0.333,1.045c0.499,0.235,0.861,0.785,0.598,1.442C154.129,282.707,154.024,282.941,153.928,283.179z"/>
		<path style="fill:#1D1D1B;" d="M142.166,188.051c-0.789,0.103-1.578,0.222-2.366,0.359c-1.133,0.324-2.257,0.709-3.363,1.182
			c-4.459,1.908-8.91,4.884-11.876,8.771c-1.725,2.261-2.478,4.886-3.096,7.619c-0.606,2.677-1.032,5.408-1.225,8.147
			c-0.368,5.23,0.116,10.53,1.892,15.485c0.806,2.25,1.835,4.422,3.061,6.474c0.604,1.01,1.266,1.982,1.966,2.928
			c0.543,0.734,1.13,1.431,1.688,2.151c-0.057-0.559-0.073-1.127,0.013-1.72c0.289-1.984,1.245-3.929,2.284-5.625
			c0.723-1.18,1.614-2.316,2.78-3.066c-1.175-0.805-2.29-1.688-3.409-2.575c-0.238-0.188,0.043-0.511,0.287-0.358
			c3.373,2.117,7.123,3.596,10.87,4.895c6.515,2.258,13.504,3.223,20.374,2.528c2.578-0.261,5.13-0.741,7.626-1.432
			c-3.753,0.349-7.511-0.161-11.225-0.758c-4.109-0.661-8.223-1.326-12.275-2.29c-4.012-0.954-7.99-2.181-11.704-3.993
			c-3.289-1.605-6.033-3.952-7.748-7.221c-0.282-0.536,0.596-1.012,0.918-0.513c1.071,1.664,2.62,2.902,4.312,3.901
			c0.99,0.584,2.015,1.114,3.053,1.616c0.069-0.099,0.159-0.191,0.288-0.263c0.997-0.563,2.09-0.857,3.165-1.244
			c0.989-0.356,1.969-0.733,2.942-1.132c2.019-0.827,4.002-1.744,5.94-2.747c0.165-0.085,0.327-0.182,0.492-0.27
			c-2.491-1.612-4.312-3.982-5.495-6.704c-1.193-2.747-1.94-5.993-1.617-8.988c0.329-3.04,2.003-5.753,4.199-7.813
			c3.662-3.434,8.887-4.85,13.736-3.789C154.449,187.255,147.788,187.32,142.166,188.051z"/>
		<path style="fill:#1D1D1B;" d="M176.592,161.2l-0.256,0.138c-2.491,0.724-4.648,1.927-6.784,3.379
			c-2.119,1.441-4.311,2.929-5.869,4.993l-0.211,0.109c0.988,0.998,1.893,2.09,2.767,3.153c3.262,3.964,6.221,8.324,8.567,12.896
			c0.467,0.335,0.92,0.692,1.355,1.105c0.865,0.821,1.672,1.695,2.367,2.667c1.348,1.886,2.218,4.033,2.472,6.343
			c0.457,4.155-0.901,8.402-3.35,11.745l-0.195,0.245c0.038,0.1,0.049,0.217,0.007,0.348c-0.568,1.764-0.675,3.633-0.558,5.504
			c0.648-1.31,1.394-2.569,2.259-3.753c2.322-3.179,5.217-5.842,8.35-8.198c1.563-1.175,3.383-2.025,5.218-2.684
			c1.807-0.648,3.886-1.336,5.823-1.292c0.131,0.003,0.245,0.039,0.346,0.092c0.473-3.385,0.508-6.823,0.033-10.221
			c-0.326-2.331-0.883-4.618-1.685-6.831c-0.404-1.115-0.867-2.21-1.387-3.276c-0.493-1.011-1.058-1.834-1.762-2.703
			c-0.11-0.136-0.16-0.303-0.166-0.472c-4.895,0.014-9.792-0.489-14.59-1.527c-0.639-0.138-1.245-0.882-0.859-1.557
			c0.083-0.144,0.183-0.271,0.269-0.412c0.102-1.021,0.205-2.047,0.423-3.048c0.249-1.141,0.57-2.267,0.943-3.374
			c0.214-0.637,0.458-1.264,0.715-1.888c-1.221-0.464-2.421-1.002-3.686-1.348C176.966,161.284,176.778,161.245,176.592,161.2z"/>
		<path style="fill:#1D1D1B;" d="M289.481,123.65c-1.46,1.74-2.641,3.671-3.449,5.797c-0.916,2.409-1.33,4.978-1.55,7.536
			c-0.387,4.482-0.406,9.1,0.257,13.556c0.624,4.192,2.018,8.301,4.748,11.604c1.619,1.96,3.587,3.622,5.451,5.34
			c0.34,0.313,0.679,0.626,1.019,0.939c-1.726-3.187-3.278-6.471-4.331-9.945c-0.742-2.448-1.223-4.963-1.562-7.496
			c-0.336-2.506-0.607-5.038-0.475-7.57c0.247-4.715,2.443-9.077,5.612-12.515c3.234-3.507,7.32-6.036,11.532-8.199
			c4.14-2.125,8.483-3.97,13.083-4.813c4.952-0.908,9.841-0.151,14.65,1.166c2.271,0.622,4.169,1.663,5.37,3.762
			c1.167,2.04,1.828,4.42,2.149,6.737c0.639,4.614-0.27,9.338-2.488,13.425c-2.206,4.066-5.434,7.458-9.099,10.245
			c-1.924,1.463-3.963,2.749-6.057,3.951c-1.066,0.612-2.146,1.17-3.254,1.701c-0.57,0.273-1.141,0.546-1.708,0.826
			c-0.54,0.267-1.102,0.387-1.681,0.555c-0.121,0.035-0.231,0.022-0.322-0.019l-0.294,0.118c1.55,0.657,3.119,1.268,4.698,1.852
			c0.858-0.215,1.718-0.42,2.567-0.667c2.567-0.745,5.086-1.651,7.55-2.687c4.376-1.839,8.54-4.169,12.402-6.93
			c3.854-2.755,7.568-6.024,9.92-10.199c2.354-4.178,3.305-9.041,1.881-13.695c-0.671-2.194-1.703-4.257-2.81-6.259
			c-0.241-0.435-0.492-0.864-0.739-1.295c0.238,1.534,0.421,3.079,0.637,4.607c0.204,1.444,0.367,2.894,0.55,4.34
			c0.184,1.442,0.42,2.901,0.497,4.353c0.11,2.053-0.055,4.449-1.808,5.802c-0.314,0.243-0.695-0.184-0.468-0.486
			c0.645-0.858,0.85-1.979,0.749-3.033c-0.106-1.115-0.374-2.211-0.556-3.315c-0.23-1.394-0.455-2.787-0.673-4.183
			c-0.411-2.633-0.778-5.272-1.173-7.907c-0.329-2.198-0.739-4.514-1.989-6.401c-1.321-1.994-3.397-3.413-5.309-4.793
			c-2.052-1.481-4.177-2.867-6.373-4.125c-0.783-0.448-1.604-0.901-2.455-1.29c-0.354,0.013-0.673-0.142-0.906-0.382
			c-1.196-0.46-2.442-0.751-3.718-0.689c-2.468,0.12-4.743,1.34-6.953,2.335c-2.47,1.112-4.94,2.224-7.41,3.337
			c-4.828,2.174-9.735,4.229-14.452,6.637C296.563,117.411,292.521,120.027,289.481,123.65z"/>
		<path style="fill:#1D1D1B;" d="M309.981,108.515c-0.396-1.264-1.335-2.381-2.451-3.053c-1.71-1.029-3.805-1.291-5.757-1.431
			c-2.944-0.212-5.89-0.029-8.834,0.137l0.101,0.08c0.342,0.39,0.559,0.882,0.797,1.339c0.237,0.455,0.475,0.906,0.69,1.372
			c0.406,0.88,0.758,1.784,1.042,2.711c0.547,1.792,0.855,3.594,0.81,5.462c2.443-1.456,5.016-2.712,7.59-3.893
			C305.968,110.32,307.975,109.418,309.981,108.515z"/>
		<path style="fill:#1D1D1B;" d="M342.038,106.053c1.034,0.689,2.083,1.397,3.104,2.142c-0.253-1.795-0.194-3.617,0.28-5.41
			c0.292-1.105,0.725-2.238,1.443-3.147c-3.524,0.531-6.971,1.547-10.146,3.157C338.557,103.764,340.323,104.909,342.038,106.053z"
			/>
		<path style="fill:#1D1D1B;" d="M272.835,337.512c3.172,0.855,6.523,0.765,9.621-0.352c1.963-0.708,4.108-1.906,5.301-3.705
			c0.11-0.397,0.214-0.796,0.311-1.197c0.909-1.95,1.101-4.282,0.867-6.358c-0.168-1.491-0.71-2.954-1.439-4.257
			c-0.354-0.634-0.841-1.451-1.446-2.09c-0.604-1.144-1.285-2.25-2.041-3.258c-2.611-3.478-6.131-6.024-10.039-7.854
			c-0.428,7.715-1.497,15.442-1.863,23.105c-0.308,6.447-0.09,12.97,1.319,19.289c0.556,2.493,1.441,4.873,2.209,7.294
			c0.781-1.761,1.609-3.495,2.549-5.196c1.395-2.527,2.851-5.017,4.277-7.525c1.532-2.695,2.981-5.489,4.112-8.395
			c-1.773,1.022-3.888,1.59-5.835,1.878c-2.716,0.402-5.496,0.179-8.11-0.658C272.219,338.104,272.426,337.401,272.835,337.512z"/>
		<path style="fill:#1D1D1B;" d="M207.521,368.221c0.082-0.201,0.19-0.389,0.282-0.585c-2.53,0.811-5.14,1.409-7.79,1.627
			c-0.355,0.029-0.715,0.052-1.076,0.071c-0.016,1.777,0,3.554,0.275,5.316c0.059,0.38,0.117,0.781,0.199,1.176
			c0.122,0.209,0.186,0.44,0.175,0.675c0.072,0.223,0.157,0.439,0.267,0.641c0.388,0.717,1.051,0.939,1.829,0.991
			c1.673,0.11,3.474-0.267,5.077-0.713l0.036-0.012c-0.44-1.893-0.572-3.805-0.248-5.756
			C206.742,370.478,207.07,369.32,207.521,368.221z"/>
		<path style="fill:#1D1D1B;" d="M211.957,363.657c5.023-2.211,9.879-4.962,14.564-7.814c0.516-0.314,1.023-0.638,1.526-0.968
			c-1.237,0.341-2.495,0.61-3.754,0.83c-2.65,0.463-5.33,0.805-8.025,0.757c-3.662-0.065-7.387-1.029-10.788-2.551
			c-0.131,0.01-0.262,0.022-0.388,0.042c-0.538,0.086-1.072,0.208-1.598,0.35c-0.87,0.235-1.736,0.491-2.602,0.741
			c-1.688,0.488-3.382,0.996-5.015,1.648c-3.161,1.26-6.152,3.043-8.387,5.635c0.367,0.408,0.737,0.814,1.118,1.204
			c0.978,1.003,2.064,1.944,3.34,2.544c1.313,0.617,2.737,0.888,4.176,0.999C201.572,367.497,207.029,365.826,211.957,363.657z"/>
		<path style="fill:#1D1D1B;" d="M234.774,331.171c3.218-2.643,6.273-5.749,7.531-9.675c0.082-0.631,0.145-1.267,0.179-1.911
			c0.016-0.303,0.16-0.499,0.354-0.616c0.026-0.251,0.053-0.503,0.064-0.76c0.226-5.185-2.691-10.28-6.008-14.057
			c-1.836-2.091-4.008-3.807-6.46-5.12c-2.662-1.426-5.454-2.656-8.222-3.859c-4.427-1.923-10.004-4.256-14.759-2.069
			c-2.158,0.992-3.714,2.943-4.805,4.999c-1.241,2.339-2.091,4.907-2.726,7.471c-1.432,5.784-1.499,11.661-1.202,17.576
			c0.033,0.649-0.973,1.002-1.171,0.302c-0.327-1.154-0.548-2.314-0.724-3.49c-1.042,3.839-2.295,7.621-2.748,11.6
			c-0.501,4.409,0.021,9.029,2.593,12.757c2.367,3.43,5.934,5.851,9.71,7.5c2.167,0.947,4.441,1.693,6.773,2.098
			c2.543,0.442,5.101,0.349,7.653,0.036c4.311-0.53,9.044-1.289,12.577-4.013c1.797-1.386,3.094-3.285,4.113-5.29
			c1.147-2.259,2.083-4.631,2.839-7.048c0.175-0.559,0.333-1.122,0.487-1.685c0.374-1.937,0.656-3.892,0.977-5.839
			c-0.128,0.227-0.251,0.461-0.386,0.682c-1.859,3.032-4.345,5.603-6.961,7.989c-2.475,2.257-5.091,4.44-7.899,6.273
			c-5.574,3.638-12.563,5.87-18.9,2.793c-0.435-0.211-0.147-0.832,0.3-0.679c3.386,1.16,7.153,0.811,10.512-0.255
			c5.983-1.898,10.915-6.396,15.398-10.617c2.066-1.945,4.042-4.088,5.551-6.51c-0.095,0.096-0.187,0.194-0.283,0.288
			c-2.074,2.043-4.36,3.903-6.738,5.581c-2.423,1.71-5.045,3.16-7.813,4.234c-2.892,1.122-6.123,2.039-9.171,0.986
			c-2.564-0.887-4.523-3.075-5.849-5.365c-1.477-2.553-2.349-5.38-2.832-8.28c-0.504-3.024-0.666-6.164-0.491-9.223
			c0.177-3.092,0.971-6.061,2.689-8.66c2.728-4.127,7.476-6.982,12.191-8.399c0.06-0.107,0.107-0.222,0.168-0.328
			c0.39-0.682,0.765-1.419,1.354-1.955c0.654-0.595,1.56-0.814,2.392-0.45c0.794,0.347,1.41,1.069,2.036,1.647
			c1.428,1.317,2.857,2.634,4.285,3.951c2.478,2.285,5.198,4.492,7.209,7.222c1.944,2.639,2.908,5.835,2.156,9.088
			c-0.776,3.353-2.84,6.255-5.166,8.725c-3.216,3.416-6.843,6.322-10.861,8.609c1.187-0.513,2.344-1.098,3.445-1.721
			C230.471,334.382,232.7,332.875,234.774,331.171z"/>
		<path style="fill:#1D1D1B;" d="M209.237,313.597c-0.903,2.837-0.916,5.906-0.759,8.849c0.056,1.05,0.154,2.103,0.285,3.151
			c0.644,1.109,1.491,2.109,2.456,2.912c4.615,3.84,10.864,2.727,15.897,0.4c2.477-1.145,4.883-2.655,6.771-4.646
			c0.898-0.947,1.692-1.999,2.254-3.181c0.55-1.158,0.654-2.499,1.311-3.587c-0.123-0.697-0.326-1.383-0.62-2.044
			c-3.116,0.044-6.04,1.54-8.904,2.591c-1.493,0.548-3.049,0.978-4.643,1.082c-1.552,0.101-3.454-0.009-4.792-0.887
			c-1.538-1.009-1.244-3.006-1.138-4.598c0.121-1.814,0.411-3.616,0.861-5.377c0.454-1.777,1.046-3.518,1.802-5.189l0.097-0.191
			c-0.343,0.175-0.688,0.345-1.028,0.524C214.842,305.631,210.743,308.867,209.237,313.597z"/>
		<path style="fill:#1D1D1B;" d="M219.588,313.713c-0.038,0.505-0.066,1.013-0.075,1.52c-0.005,0.276-0.076,0.734,0.058,0.979
			c0.235,0.428,1.077,0.511,1.511,0.587c2.658,0.465,5.55-0.485,8.038-1.356c1.375-0.481,2.753-0.97,4.162-1.343
			c0.737-0.195,1.482-0.365,2.238-0.467c0.594-0.08,1.388-0.239,2.01-0.132c-0.236-0.409-0.508-0.798-0.791-1.182
			c-0.685-0.584-1.643-0.926-2.566-1.039c-2.066-0.253-4.18,0.03-6.235,0.264c-1.117,0.127-2.233,0.257-3.35,0.38
			c-1.008,0.112-2.063,0.27-3.073,0.089c-0.578-0.103-1.146-0.357-1.636-0.706C219.753,312.105,219.649,312.907,219.588,313.713z"/>
		<path style="fill:#1D1D1B;" d="M223.558,310.024c2.305-0.19,4.608-0.463,6.919-0.568c1.244-0.057,2.589-0.07,3.863,0.162
			c-0.378-0.369-0.76-0.728-1.136-1.078c-2.841-2.642-5.658-5.326-8.56-7.9c-0.109-0.096-0.308-0.34-0.465-0.386l-0.094,0.089
			c-0.263,0.182-0.463,0.664-0.62,0.932c-0.427,0.729-0.821,1.479-1.183,2.243c-0.75,1.586-1.374,3.242-1.816,4.94
			c0.086,0.348,0.149,0.725,0.352,0.977C221.454,310.222,222.661,310.098,223.558,310.024z"/>
		<path style="fill:#1D1D1B;" d="M213.457,336.967c0.842,0.823,1.828,1.513,2.96,1.867c0.662,0.207,1.348,0.273,2.036,0.254
			c3.336-1.857,6.505-4.049,9.518-6.391c2.573-2,5.081-4.225,7.149-6.77c-0.195,0.197-0.388,0.395-0.592,0.585
			c-2.278,2.111-5.134,3.735-8.043,4.799c-3.186,1.165-6.653,1.859-10.041,1.302c-2.654-0.437-5.278-1.827-7.113-3.824
			c0.123,0.513,0.248,1.026,0.405,1.53C210.487,332.723,211.632,335.183,213.457,336.967z"/>
		<path style="fill:#1D1D1B;" d="M239.728,294.48c-0.117,0.037-0.248,0.053-0.401,0.019c-2.522-0.559-5.113-0.731-7.687-0.508
			c-1.617,0.14-3.168,0.461-4.713,0.842c0.242,0.113,0.483,0.227,0.723,0.338c2.858,1.327,5.712,2.705,8.138,4.75
			c2.256,1.902,4.206,4.227,5.74,6.745c0.425,0.698,0.816,1.428,1.175,2.177l-0.016-0.193
			C242.157,303.808,241.135,299.086,239.728,294.48z"/>
		<path style="fill:#1D1D1B;" d="M238.653,291.446c-0.627-0.612-1.276-1.199-1.923-1.789c-1.3-1.184-2.64-2.32-4.01-3.422
			c-2.793-2.245-5.793-4.223-8.966-5.889c-2.817-1.479-5.768-2.751-8.806-3.704c-2.909-0.912-6.053-1.488-9.095-1.002
			c-2.977,0.476-5.317,2.182-7.513,4.146c-2.179,1.949-4.248,3.947-6.854,5.327c-4.658,2.467-10.887,3.261-13.521,8.4
			c-1.566,3.056-2.21,6.664-2.777,10.02c-0.306,1.807-0.537,3.628-0.693,5.454c-0.021,0.244-0.04,0.489-0.06,0.733
			c0.102-0.195,0.201-0.391,0.309-0.583c1.423-2.52,3.066-4.928,4.914-7.154c3.629-4.37,8.131-8.088,13.364-10.366
			c5.229-2.276,11.231-3.3,16.755-1.549l0.103,0.056c0.222-0.029,0.443-0.061,0.669-0.077c5.149-0.361,10.176,1.872,14.83,4.059
			c1.864-0.875,3.944-1.388,5.951-1.643c2.618-0.333,5.279-0.199,7.862,0.327c-0.129-0.391-0.238-0.787-0.372-1.176L238.653,291.446
			z"/>
		<path style="fill:#1D1D1B;" d="M184.423,317.79c1.855,0.13,3.728,0.398,5.514,0.927c1.635,0.484,3.362,1.196,4.856,2.072
			c0.563-1.626,1.141-3.235,1.678-4.817c-0.149-5.363,0.919-10.816,2.796-15.795c0.925-2.455,2.163-4.92,4.032-6.798
			c1.013-1.018,2.175-1.817,3.443-2.383c-0.427,0-0.855-0.006-1.28,0.012c-5.471,0.229-10.686,1.662-15.333,4.612
			c-4.533,2.878-8.298,6.813-11.319,11.228c-1.58,2.31-3.297,4.852-3.69,7.678c-0.186,1.339-0.114,2.688,0.081,4.027
			c0.361-0.096,0.729-0.174,1.088-0.246c0.879-0.177,1.765-0.315,2.656-0.413C180.762,317.693,182.599,317.663,184.423,317.79z"/>
		<path style="fill:#1D1D1B;" d="M178.44,332.149c0.618,2.96,0.965,5.929,1.064,8.951c0.047,1.435,0.071,2.879,0.161,4.317
			c1.825-1.311,4.041-1.706,6.256-2.045c1.489-0.228,3.035-0.279,4.539-0.354c0.786-0.039,1.571-0.073,2.357-0.098
			c0.163-0.005,0.335-0.015,0.508-0.024l-0.135-0.274c-2.921-6.791-1.071-13.954,1.262-20.833c-0.786-0.326-1.54-0.753-2.311-1.111
			c-0.811-0.376-1.636-0.711-2.475-1.021c-1.692-0.625-3.442-0.912-5.236-1.045c-1.794-0.133-3.598-0.098-5.387,0.087
			c-0.849,0.088-1.694,0.212-2.533,0.37c-0.392,0.074-0.788,0.17-1.187,0.251c0.244,1.358,0.595,2.702,0.934,4.012
			C177.016,326.263,177.822,329.185,178.44,332.149z"/>
		<path style="fill:#1D1D1B;" d="M183.539,357.192c1.021,1.574,2.173,3.089,3.409,4.519c2.257-2.672,5.267-4.52,8.443-5.939
			c1.772-0.792,3.57-1.505,5.397-2.16c0.807-0.289,1.619-0.573,2.438-0.829c-0.352-0.192-0.707-0.38-1.049-0.582
			c-3.34-1.979-6.326-4.631-8.22-8.026c-0.331,0.03-0.663,0.049-0.977,0.076c-0.736,0.062-1.473,0.116-2.21,0.165
			c-1.414,0.094-2.835,0.155-4.252,0.207c-2.37,0.086-4.801,0.377-6.778,1.78c0.106,1.214,0.273,2.421,0.563,3.61
			C180.926,352.571,182.111,354.991,183.539,357.192z"/>
		<path style="fill:#1D1D1B;" d="M211.734,375.496c2.877-1.415,5.537-3.238,8.102-5.151c2.641-1.969,5.182-4.074,7.61-6.3
			c4.844-4.441,9.224-9.398,13.069-14.726c1.965-2.723,3.774-5.548,5.455-8.454c1.829-3.161,3.634-6.328,5.686-9.352
			c1.949-2.873,4.057-5.638,6.313-8.276c1.1-1.287,2.236-2.544,3.405-3.77c0.643-0.674,1.299-1.335,1.958-1.993
			c0.355-0.354,0.754-0.718,0.984-1.165c0.438-0.23,0.748-0.667,0.971-1.096c0.424-0.815,0.305-1.818,0.027-2.655
			c-0.23-0.693-0.596-1.371-0.996-1.98c-0.201-0.307-0.471-0.606-0.779-0.808c-0.046-0.03-0.093-0.048-0.139-0.074
			c-0.427-0.943-0.877-1.874-1.36-2.796c-3.007-5.738-6.19-11.596-10.582-16.409c-2.092-2.292-4.555-4.329-7.285-5.816
			c-0.749-0.408-1.524-0.766-2.313-1.092c0.221,0.171,0.456,0.33,0.667,0.51c3.717,3.164,6.182,7.547,7.598,12.172
			c0.809,2.64,1.313,5.353,1.649,8.091c0.171,1.393,0.239,2.804,0.264,4.206c0.025,1.384,0.111,2.766-0.158,4.126
			c-0.09,0.453-0.782,0.602-0.948,0.112c-0.481-1.418-0.593-2.91-0.8-4.39c-0.199-1.431-0.391-2.863-0.581-4.295
			c-0.642-4.866-1.801-9.766-4.391-13.992c-1.158-1.89-2.563-3.599-4.209-5.083c-0.813-0.733-1.699-1.356-2.622-1.94
			c-0.247-0.156-0.493-0.31-0.741-0.46c0.23,0.458,0.465,0.913,0.677,1.38c4.128,9.089,6.511,18.997,7.015,28.965
			c0.251,4.966,0.04,9.936-0.668,14.858c-0.342,2.38-0.788,4.758-1.354,7.107c-0.311,2.253-0.884,4.489-1.61,6.626
			c-0.929,2.733-2.237,5.348-3.955,7.673c-3.475,4.701-8.568,7.729-13.566,10.56c-4.665,2.642-9.377,5.309-14.42,7.169
			c-0.08,0.121-0.159,0.243-0.233,0.369c-0.269,0.458-0.51,0.933-0.727,1.417c-0.441,0.984-0.771,2.01-0.982,3.067
			c-0.344,1.726-0.408,3.547-0.152,5.302C209.025,376.686,210.405,376.149,211.734,375.496z"/>
		<path style="fill:#1D1D1B;" d="M268.503,359.701c-1.324-3.786-1.87-7.736-2.304-11.706c-0.811-7.417-1.627-14.85-1.779-22.316
			c-0.042-2.068,0.004-4.128,0.074-6.188c-0.457,0.459-0.917,0.916-1.364,1.386c-1.403,1.471-2.757,2.987-4.061,4.546
			c-2.662,3.183-5.112,6.542-7.327,10.05c-2.018,3.195-3.78,6.544-5.778,9.751c-1.827,2.933-3.811,5.768-5.939,8.491
			c-4.313,5.519-9.222,10.581-14.595,15.074c-1.198,1.001-2.432,2.004-3.697,2.982c0.919-0.17,1.836-0.298,2.72-0.402
			c4.331-0.509,8.684-0.704,13.044-0.69c4.191,0.014,8.389,0.35,12.579,0.118c3.98-0.22,7.852-1.084,11.495-2.716
			c1.684-0.754,3.347-1.63,4.792-2.788c0.673-0.54,1.281-1.15,1.775-1.862c0.447-0.645,0.675-1.39,1.014-2.087
			C268.929,360.798,268.697,360.256,268.503,359.701z"/>
		<path style="fill:#1D1D1B;" d="M284.931,316.052c1.161,1.21,2.242,2.422,3.159,3.777c-0.238-1.093-0.527-2.178-0.875-3.248
			c-1.529-4.712-3.933-9.065-6.613-13.21c-2.248-3.476-4.64-6.861-7.025-10.247c0.654,4.892,0.677,9.809,0.426,14.732
			C278.1,309.859,281.785,312.774,284.931,316.052z"/>
		<path style="fill:#1D1D1B;" d="M292.282,316.649c1.76,1.09,4.482,1.376,5.455-0.867c0.445-1.025,0.511-2.221,0.49-3.325
			c-0.025-1.331-0.145-2.661-0.342-3.978c-0.804-5.379-2.886-10.47-5.105-15.4c-2.117-4.703-4.434-9.345-7.446-13.548
			c-2.986-4.167-6.651-7.654-10.979-10.404c-8.625-5.48-18.719-8.011-27.966-12.185c-5.289-2.388-10.244-5.453-15.568-7.767
			c-5.339-2.32-10.999-3.875-16.776-4.597c-0.837-0.105-1.684-0.174-2.524-0.178c0.371,1.031,0.678,2.056,1.231,3.029
			c0.608,1.069,1.364,2.056,2.169,2.984c3.04,3.504,6.894,6.127,10.893,8.411c4.148,2.368,8.272,4.768,12.348,7.256
			c1.103-1.763,3.835-2.708,5.659-2.975c2.708-0.396,5.486,0.213,8.01,1.182c2.714,1.042,5.233,2.586,7.596,4.264
			c2.499,1.774,4.814,3.82,6.79,6.168c3.34,3.968,5.377,8.778,6.534,13.791c0.231,0.049,0.456,0.169,0.633,0.423
			c3.473,4.975,7.088,9.885,10.264,15.058c1.99,3.241,3.761,6.67,5.068,10.228c0.179-0.111,0.407-0.131,0.597,0.041
			C290.253,315.109,291.203,315.98,292.282,316.649z"/>
		<path style="fill:#1D1D1B;" d="M175.558,219.184c-0.497-3.107-0.728-6.269,0.204-9.234c-2.199,2.262-4.867,4.058-7.667,5.498
			c-4.144,2.131-8.66,3.361-12.923,5.212c-1.88,0.816-3.701,1.764-5.369,2.962c-0.805,0.578-1.58,1.207-2.275,1.915
			c-0.366,0.373-0.716,0.762-1.045,1.169c-0.141,0.175-0.279,0.352-0.413,0.533l-0.07,0.098c0.153,0.188,0.238,0.424,0.179,0.678
			c-0.035,0.153-0.095,0.288-0.167,0.408c4.725,1.179,9.571,1.932,14.367,2.678c3.923,0.61,7.85,1.121,11.783,0.32
			c1.83-0.373,3.564-0.993,5.249-1.737c-0.165-0.526-0.203-1.135-0.291-1.623l-0.52-2.887
			C176.242,223.177,175.879,221.184,175.558,219.184z"/>
		<path style="fill:#1D1D1B;" d="M157.907,215.263c-3.311,2.411-6.828,4.541-10.488,6.382c-1.841,0.926-3.721,1.775-5.633,2.544
			c-0.937,0.377-1.883,0.734-2.835,1.072c-0.439,0.156-0.88,0.321-1.326,0.466c1.915,0.783,3.872,1.439,5.855,2.009
			c-0.058-1.064,0.99-2.136,1.626-2.855c1.583-1.788,3.514-3.247,5.582-4.428c4.21-2.405,8.884-3.705,13.342-5.546
			c3.921-1.619,7.745-3.794,10.609-6.979c2.813-3.128,4.658-7.306,4.273-11.574c-0.194-2.148-0.99-4.155-2.225-5.916
			c-0.616-0.879-1.309-1.702-2.021-2.503c-0.207-0.233-0.405-0.473-0.605-0.711c1.119,3.267,0.225,7.184-0.963,10.292
			C170.276,204.894,164.167,210.706,157.907,215.263z"/>
		<path style="fill:#1D1D1B;" d="M162.583,206.506c-0.208-0.095-0.376-0.295-0.432-0.537c-0.224-0.982-0.026-1.996-0.309-2.972
			c-0.274-0.942-0.829-1.815-1.57-2.457c-2.135-1.849-4.992-1.427-7.179,0.028c-1.694,2.118-2.877,4.539-3.173,7.294
			c-0.154,1.432-0.065,2.84,0.177,4.224l0.112,0.202c0.015,0.306,0.071,0.613,0.118,0.921c0.292,1.229,0.698,2.437,1.173,3.618
			c2.901-1.739,5.715-3.676,8.317-5.849c-0.039-0.247,0.019-0.509,0.242-0.742C161.12,209.123,161.997,207.918,162.583,206.506z"/>
		<path style="fill:#1D1D1B;" d="M151.663,192.837c-5.143,1.503-9.878,5.969-9.465,11.681c0.348,4.816,2.449,10.439,6.814,12.989
			c0.222,0.13,0.347,0.315,0.416,0.515c0.183-0.103,0.368-0.198,0.55-0.301c-0.258-0.565-0.5-1.14-0.713-1.73
			c-1.436-2.482-2.181-5.237-2.071-8.13c0.198-5.179,3.651-10.479,9.234-10.758c2.496-0.124,4.869,0.882,6.376,2.904
			c0.147,0.197,0.293,0.419,0.433,0.658c-0.441-3.012-1.891-5.828-3.804-8.177C156.882,191.986,154.147,192.111,151.663,192.837z"/>
		<path style="fill:#1D1D1B;" d="M192.603,201.35c-3.478,1.282-6.865,2.941-9.646,5.428c-2.536,2.269-4.527,5.227-5.935,8.335
			c0.165,1.476,0.435,2.94,0.702,4.342c0.365,1.909,0.736,3.815,1.092,5.725c0.179,0.962,0.358,1.923,0.538,2.885
			c0.04,0.214,0.087,0.426,0.127,0.634c0.581-0.291,1.154-0.599,1.729-0.904c2.107-3.07,4.088-6.228,6.12-9.347
			c1.403-2.154,2.773-4.395,4.456-6.345c1.145-1.327,2.485-2.376,3.981-3.173c0.977-2.305,1.819-4.658,2.407-7.094
			c0.159-0.659,0.297-1.322,0.423-1.986c-0.982,0.258-2.009,0.367-3,0.596C194.582,200.679,193.582,200.989,192.603,201.35z"/>
		<path style="fill:#1D1D1B;" d="M212.695,171.88c-5.259,1.473-10.681,2.326-16.127,2.547c0.495,0.572,0.85,1.332,1.187,1.999
			c0.635,1.258,1.188,2.557,1.659,3.885l0.017,0.051c3.136-1.884,6.549-3.143,10.125-3.964c1.981-0.455,3.995-0.797,6.004-1.101
			c1.026-0.155,2.054-0.307,3.083-0.442c0.897-0.117,2.221-0.514,2.98,0.097c0.301,0.242,0.425,0.806,0.122,1.105
			c-0.731,0.721-1.925,0.5-2.891,0.518c-0.962,0.018-1.921,0.045-2.882,0.112c-1.995,0.137-3.964,0.388-5.926,0.776
			c-3.593,0.711-7.141,1.851-10.411,3.523c1.283,3.862,1.944,8.03,1.882,12.184c1.916-0.759,4.01-0.662,6.043-0.633
			c2.489,0.036,4.978,0.12,7.467,0.169c2.517,0.049,5.061,0.199,7.505,0.84c1.129,0.296,2.245,0.646,3.337,1.058
			c0.206,0.077,0.405,0.17,0.609,0.252c-2.182-4.612-4.539-9.182-4.621-14.402c-0.052-3.316,0.474-6.774,1.416-9.954
			c0.325-1.098,0.765-2.189,1.343-3.187c-1.295,0.647-2.624,1.23-3.94,1.784C218.077,170.191,215.41,171.12,212.695,171.88z"/>
		<path style="fill:#1D1D1B;" d="M236.968,153.627c-1.045,1.799-2.112,3.585-3.229,5.34c-1.516,2.38-3.205,4.642-5.551,6.266
			c-0.274,0.19-0.566,0.356-0.848,0.535c-1.668,2.04-2.413,4.662-2.886,7.259c-0.609,3.346-1.024,6.808-0.339,10.173
			c0.642,3.151,2.082,6.082,3.493,8.947c1.469,2.985,2.974,5.96,3.866,9.181c0.811,2.93,1.262,6.24,0.344,9.205
			c6.98,2.244,13.643,5.483,19.683,9.64c-1.977-2.521-3.9-5.086-5.798-7.665c-4.174-5.673-8.852-11.471-11.229-18.188
			c-0.596-1.682-0.987-3.539-0.546-5.308c0.364-1.456,1.156-2.679,2.257-3.688c0.591-0.542,1.242-0.996,1.929-1.391
			c-1.098-1.469-1.901-3.205-2.552-4.884c-0.814-2.1-1.409-4.312-1.725-6.542c-0.603-4.256-0.158-8.473,1.075-12.574
			C235.544,157.818,236.247,155.719,236.968,153.627z"/>
		<path style="fill:#1D1D1B;" d="M295.369,158.793l-0.252,0.202c-0.241,0.209-0.57,0.249-0.877,0.18
			c0.24,0.712,0.495,1.42,0.781,2.121c1.712,4.192,4.008,8.104,6.303,11.996c0.31,0.526,0.298,1.181-0.233,1.576
			c-0.115,0.086-0.255,0.145-0.403,0.179c-0.324,0.147-0.71,0.125-1.062-0.199c-1.067-0.983-2.134-1.966-3.201-2.95
			c-0.919-0.847-1.844-1.688-2.767-2.532c-3.54,3.875-7.153,7.852-9.988,12.282c-1.46,2.281-2.598,4.745-3.293,7.366
			c-0.521,1.966-0.774,3.995-0.868,6.027c1.165,1.162,2.374,2.28,3.681,3.28c3.463,2.651,7.552,4.504,11.831,5.353
			c2.15,0.427,4.351,0.622,6.543,0.519c2.039-0.096,4.16-0.352,6.077-1.086l0.241-0.104c-0.727-0.711-1.237-1.68-1.718-2.545
			c-0.652-1.173-1.211-2.388-1.678-3.646c-1.676-4.512-2.314-9.374-2.256-14.171c0.017-1.36,0.136-2.715,0.15-4.074
			c0.015-1.399,0.05-2.76,0.25-4.147c0.397-2.757,0.956-5.482,1.578-8.196c0.039-0.169,0.116-0.299,0.209-0.41
			c-0.385-0.416-0.773-0.827-1.158-1.248C301.088,162.193,298.563,159.655,295.369,158.793z"/>
		<path style="fill:#1D1D1B;" d="M336.674,143.359c0.036-0.152,0.076-0.302,0.093-0.46c0.116-1.031-0.231-2.075-0.793-2.93
			c-1.266-1.927-3.279-3.03-5.225-4.154c-1.801-1.041-3.489-2.257-4.683-3.991c-1.313-1.907-1.836-4.368-1.248-6.514
			c-0.986,2.473-0.117,5.288,1.179,7.486c1.593,2.703,3.863,4.933,5.498,7.608c0.754,1.234,1.388,2.567,1.563,4.018
			c0.166,1.379-0.108,2.806-0.608,4.103C334.039,146.962,335.484,145.24,336.674,143.359z"/>
		<path style="fill:#1D1D1B;" d="M328.344,152.016c0.362-0.45,0.714-0.905,1.041-1.365c0.989-1.392,1.718-3.062,1.748-4.794
			c0.055-3.163-2.414-5.71-4.265-8.018c-1.93-2.406-3.741-4.959-4.45-8.004l-0.077,0.171c-0.334,0.977-0.385,2.051-0.259,3.07
			c0.282,2.296,1.567,4.33,2.811,6.224c1.304,1.984,2.665,3.989,3.357,6.281c0.666,2.205,0.76,4.549-0.236,6.671L328.344,152.016z"
			/>
		<path style="fill:#1D1D1B;" d="M338.178,140.569c0.125-0.275,0.253-0.549,0.366-0.83c1.608-3.98,1.858-8.512,0.636-12.636
			c-0.163-0.549-0.348-1.123-0.567-1.688c-0.078-0.874-0.703-1.723-1.302-2.347c-0.029-0.03-0.061-0.06-0.09-0.09
			c-0.023-0.026-0.05-0.049-0.074-0.075c-0.975-1.006-2.067-2.029-3.391-2.527c-1.412-0.531-3.011-0.393-4.33,0.325
			c-0.752,0.409-1.944,1.187-2.441,2.112c-1.547,1.589-2.043,4.037-1.435,6.153c0.583,2.028,1.999,3.702,3.721,4.875
			c1.913,1.303,4.105,2.113,6.024,3.409C336.528,138.081,337.617,139.2,338.178,140.569z"/>
		<path style="fill:#1D1D1B;" d="M318.827,148.623c-0.094,2.09-1.878,4.155-3.435,5.417c-1.516,1.229-3.395,2.014-5.31,2.349
			c-0.266,0.046-0.527,0.078-0.786,0.099c0.213,0.19,0.413,0.39,0.585,0.606c1.531,0.733,3.071,1.448,4.617,2.145
			c0.108-0.066,0.227-0.114,0.376-0.147c0.12-0.027,0.24-0.046,0.36-0.067c0.24-0.042,0.48-0.086,0.72-0.126
			c0.462-0.077,0.922-0.19,1.382-0.282c0.436-0.088,0.86-0.205,1.289-0.321c0.115-0.031,0.23-0.057,0.345-0.081
			c0.361-0.224,0.722-0.448,1.079-0.678c1.699-1.099,3.415-2.177,5.102-3.296c1.017-1.252,1.85-2.626,2.026-4.246
			c0.252-2.317-0.863-4.641-2.043-6.564c-1.298-2.115-2.85-4.063-3.961-6.293c-0.063-0.127-0.119-0.257-0.178-0.385l-0.006,0.086
			c-0.089,0.898-0.139,1.91-0.667,2.676c-0.185,0.268-0.703,0.213-0.792-0.117c-0.243-0.903-0.137-1.919-0.174-2.849
			c-0.039-0.984-0.07-1.969-0.038-2.954c0.032-0.989,0.116-1.988,0.401-2.939c0.125-0.416,0.319-0.895,0.602-1.282
			c0.361-1.109,0.97-2.186,1.898-2.8c0.21-1.729,0.92-3.374,2.154-4.683c0.732-0.776,1.676-1.499,2.707-2.017
			c-3.618-0.353-7.183,0.065-10.717,1.175c-4.184,1.315-8.246,3.264-12.012,5.503c-3.722,2.213-7.184,4.931-9.619,8.558
			c-1.16,1.727-2.07,3.682-2.529,5.716c-0.519,2.299-0.468,4.648-0.245,6.981c0.311,3.253,0.831,6.454,1.72,9.569l0.121-0.153
			c0.299-0.287,0.618-0.553,0.949-0.804c-0.517-0.907-0.991-1.786-1.313-2.802c-0.36-1.134-0.569-2.322-0.671-3.507
			c-0.368-4.282,0.727-8.686,3.051-12.306c1.178-1.835,2.824-3.174,4.383-4.657c1.59-1.512,3.158-3.035,5.036-4.189
			c0.209-0.128,0.412,0.143,0.226,0.305c-1.769,1.543-3.71,2.959-5.164,4.823c-1.233,1.58-2.152,3.478-3.092,5.241
			c-0.92,1.724-1.688,3.5-2.166,5.399c-0.479,1.903-0.728,3.902-0.611,5.864c0.104,1.748,0.438,3.647,1.078,5.307
			c2.01-1.279,4.441-1.958,6.79-1.914c1.071,0.02,2.136,0.193,3.163,0.497c1.424,0.253,2.984,0.133,4.37-0.156
			c1.589-0.331,3.07-1.102,4.31-2.137c1.482-1.238,2.111-2.981,3.251-4.472c1.444-1.89,1.023-4.503,2.147-6.513
			c0.147-0.263,0.649-0.278,0.657,0.097c0.028,1.308-0.512,2.563-0.832,3.814C319.062,146.286,318.881,147.415,318.827,148.623z"/>
		<path style="fill:#1D1D1B;" d="M307.309,185.897c-1.155-2.007-2.322-4.019-2.883-6.285c-0.224-0.904-0.336-1.819-0.382-2.736
			c-0.174,0.836-0.358,1.67-0.462,2.517c-0.172,1.385-0.202,2.805-0.204,4.199c-0.003,2.322,0.177,4.638,0.585,6.925
			c0.403,2.261,1.044,4.477,1.931,6.597c0.427,1.022,0.899,2.029,1.435,3c0.452,0.819,1.041,1.605,1.414,2.47
			c1.365-0.772,2.363-1.923,2.572-3.621c0.28-2.27-0.426-4.772-1.138-6.911C309.455,189.886,308.445,187.872,307.309,185.897z"/>
		<path style="fill:#1D1D1B;" d="M290.675,204.825c-4.607-1.554-8.686-4.218-12.155-7.602c-1.885-1.839-3.676-3.785-5.443-5.738
			c-0.798-0.882-1.58-1.78-2.338-2.697c-0.292,0.229-0.626,0.413-0.973,0.615c-0.601,0.349-1.207,0.691-1.819,1.019
			c-1.209,0.648-2.441,1.27-3.688,1.841c-7.362,3.368-15.806,7.388-19.662,14.915c0.133,0.183,0.264,0.366,0.397,0.549
			c1.937,2.658,3.88,5.312,5.867,7.933c3.888,5.129,7.947,10.164,12.49,14.733c4.444,4.469,9.364,8.549,14.882,11.628
			c6.041,3.37,12.642,5.306,19.427,6.473c0.004-2.696,0.032-5.393,0.108-8.088c0.319-11.389,1.594-22.745,3.593-33.96
			C297.741,206.56,294.107,205.982,290.675,204.825z"/>
		<path style="fill:#1D1D1B;" d="M269.76,244.18c0.739-0.642,1.622-1.044,2.497-1.461c0.524-0.25,0.998-0.532,1.464-0.832
			c-0.178-0.116-0.361-0.222-0.538-0.34c-5.506-3.678-10.357-8.247-14.794-13.142c-0.393-0.433-0.765-0.884-1.151-1.323
			c-0.259,0.034-0.538-0.03-0.801-0.257c-0.962-0.83-1.943-1.637-2.947-2.416c-3.985-3.092-8.307-5.749-12.851-7.949
			c-0.788,2.243-1.785,4.411-2.44,6.711c-1.28,4.494-1.512,9.184-1.239,13.83c0.275,4.684,1.397,9.164,3.008,13.555
			c0.092,0.251,0.074,0.471,0.008,0.664c1.438,0.761,2.878,1.519,4.334,2.245c2.468,1.23,4.995,2.328,7.554,3.353
			c4.652,1.863,9.474,3.536,14.133,5.522c-0.637-4.329-0.458-8.844,0.779-13.042C267.343,247.375,268.221,245.516,269.76,244.18z"/>
		<path style="fill:#1D1D1B;" d="M251.226,182.158c-3.112,0.785-6.313,1.41-9.343,2.481c-2.317,0.819-5.134,2.175-5.772,4.795
			c-0.41,1.684,0.18,3.432,0.811,4.981c0.659,1.62,1.439,3.194,2.308,4.712c1.412,2.465,3.028,4.805,4.687,7.11
			c0.697-1.483,1.574-2.877,2.611-4.157c2.86-3.53,6.649-6.093,10.595-8.26c2.23-1.225,4.479-2.421,6.721-3.625
			c1.095-0.588,2.189-1.175,3.272-1.786c0.561-0.317,1.119-0.639,1.67-0.973c0.199-0.121,0.394-0.246,0.592-0.361
			c-0.422-0.556-0.833-1.119-1.226-1.696c-1.699-2.487-3.104-5.161-4.212-7.95c-1.001,0.651-2.042,1.228-3.153,1.694
			C257.698,180.42,254.47,181.339,251.226,182.158z"/>
		<path style="fill:#1D1D1B;" d="M198.4,207.839c2.499-0.699,5.096-0.879,7.678-0.968c2.717-0.093,5.443-0.038,8.155,0.164
			c5.261,0.392,10.456,1.374,15.521,2.844c0.28-1.665,0.412-3.287,0.188-4.994c-0.245-1.87-0.782-3.679-1.454-5.436
			c-0.212-0.555-0.441-1.105-0.676-1.654c-0.881-0.194-1.776-0.803-2.562-1.131c-1.07-0.446-2.166-0.832-3.28-1.154
			c-2.257-0.653-4.541-1.098-6.875-1.365c-2.328-0.266-4.677-0.373-7.018-0.461c-2.162-0.081-4.534-0.354-6.593,0.46
			c-0.207,4.901-1.427,9.736-3.83,13.964C197.905,208.023,198.141,207.912,198.4,207.839z"/>
		<path style="fill:#1D1D1B;" d="M218.607,243.04c6.126,1.207,11.966,3.348,17.525,6.171c0.474,0.241,0.943,0.493,1.415,0.739
			c-0.881-2.109-1.535-4.328-1.987-6.558c-0.973-4.797-1.066-9.71-0.231-14.534c0.415-2.396,0.999-4.789,1.744-7.104
			c0.64-1.99,1.398-4.015,2.542-5.776c-4.514-2.101-9.235-3.759-14.075-4.908c-5.059-1.201-10.243-1.878-15.442-1.994
			c-2.571-0.057-5.172,0.008-7.73,0.294c-2.427,0.271-4.902,0.831-6.898,2.312c-0.166,0.123-0.322,0.259-0.48,0.391
			c0.07,0.327-0.043,0.697-0.383,0.836l-0.025,0.07l-0.15,0.246c-0.1,0.192-0.142,0.353-0.173,0.564
			c-0.079,0.527,0.001,1.084,0.038,1.611c0.091,1.314,0.234,2.626,0.425,3.929c0.678,4.634,2.032,9.133,3.773,13.472
			c0.884,2.203,1.851,4.381,2.85,6.533c0.843,1.817,1.969,3.537,2.781,5.369c1.658-1.323,3.555-2.253,5.726-2.49
			C212.743,241.898,215.779,242.483,218.607,243.04z"/>
		<path style="fill:#1D1D1B;" d="M192.835,259.952c1.62-2.619,3.274-5.219,5.023-7.755c1.556-2.255,3.136-4.566,5.11-6.482
			c0.137-0.133,0.28-0.257,0.421-0.385c-0.719-0.95-1.295-2.005-1.889-3.041c-0.711-1.239-1.427-2.476-2.124-3.724
			c-2.493-4.466-4.432-9.335-5.716-14.284c-0.652-2.515-1.15-5.077-1.38-7.667c-0.039-0.435-0.087-0.891-0.122-1.349
			c-0.531,0.745-1.033,1.509-1.533,2.255c-1.43,2.135-2.811,4.302-4.204,6.461c-0.995,1.543-2.009,3.077-3.04,4.599
			c-0.042,0.121-0.115,0.23-0.221,0.325c-1.751,2.568-3.579,5.083-5.61,7.439c-1.66,1.926-3.452,3.749-5.389,5.398
			c-1.395,1.187-2.878,2.247-4.404,3.25c1.63,0.39,2.892,2.409,3.863,3.578c2.621,3.156,5.815,5.83,9.31,7.97
			c3.495,2.14,7.224,3.552,11.151,4.645C192.332,260.774,192.581,260.362,192.835,259.952z"/>
		<path style="fill:#1D1D1B;" d="M223.631,266.27c4.867,0.894,9.77,1.893,14.565,3.201c-0.255-0.405-0.433-0.851-0.493-1.352
			c-2.603-1.601-5.198-3.22-7.755-4.892c-4.088-2.674-8.286-5.328-12.061-8.438c-1.787-1.473-3.493-3.114-4.881-4.974
			c-1.12-1.502-2.318-3.443-2.421-5.384c-1.348,0.091-2.662,0.407-3.868,1.151c-2.013,1.241-3.53,3.095-4.927,4.969
			c-3.371,4.525-6.324,9.344-9.26,14.157c3.706-0.458,7.445-0.643,11.188-0.589C210.411,264.217,217.055,265.062,223.631,266.27z"/>
		<path style="fill:#1D1D1B;" d="M304.837,274.927c-5.734,0.464-11.227,2.705-15.584,6.477c0.504,0.816,0.996,1.639,1.464,2.475
			c2.297,4.106,4.329,8.423,6.058,12.818c-0.321-3.901,0.549-8,1.897-11.609C300.064,281.362,302.177,277.889,304.837,274.927z"/>
		<path style="fill:#1D1D1B;" d="M295.646,256.373c0.545-1.169,1.109-2.332,1.682-3.487c0.259-0.523,0.512-1.102,0.806-1.651
			c-0.174-0.103-0.322-0.25-0.402-0.43c-1.643-0.279-3.279-0.594-4.901-0.961c-6.376-1.442-12.392-3.8-17.934-7.212
			c-0.775,1.092-2.232,1.686-3.289,2.435c-1.549,1.096-2.346,2.912-2.8,4.703c-1.105,4.362-1.205,8.97-0.406,13.389l-0.006,0.24
			c4.405,2.024,8.607,4.417,12.304,7.635c2.839,2.471,5.235,5.361,7.326,8.467c0.383-0.329,0.781-0.639,1.18-0.948
			c-0.078-0.153-0.129-0.328-0.104-0.549c0.566-5.005,2.023-9.995,3.703-14.729C293.638,260.925,294.593,258.632,295.646,256.373z"
			/>
		<path style="fill:#1D1D1B;" d="M325.161,203.555c-1.601-0.296-3.196-0.625-4.788-0.967c-1.457-0.313-2.91-0.663-4.394-0.822
			c-1.046-0.112-2.154-0.23-3.215-0.105c-0.464,0.899-1.121,1.7-2.019,2.343c-1.782,1.275-3.988,1.824-6.123,2.15
			c-0.88,0.134-1.765,0.21-2.651,0.258c-0.33,2.859-0.654,5.721-0.901,8.588c-0.255,2.958-0.391,5.925-0.607,8.886
			c-0.213,2.912-0.387,5.827-0.51,8.744c-0.227,5.388-0.36,10.783-0.351,16.177c6.771,1.027,13.644,1.412,20.483,0.987
			c0.85-0.053,1.699-0.12,2.547-0.198c1.058-0.895,2.138-1.741,3.051-2.809c1.018-1.191,1.867-2.52,2.536-3.936
			c2.786-5.893,1.505-12.641,0.574-18.799c-0.536-3.548-1.079-7.094-1.701-10.628C326.51,210.122,325.811,206.845,325.161,203.555z"
			/>
		<path style="fill:#1D1D1B;" d="M363.07,184.671c-3.45,1.624-7.335,2.112-11.112,2.109c-7.408-0.005-14.833-1.327-21.83-3.744
			c-6.891-2.38-13.548-5.919-19.108-10.666c-1.378-1.177-2.669-2.42-3.921-3.701c-0.095,0.411-0.192,0.821-0.279,1.234
			c-0.514,2.418-0.903,4.908-0.611,7.38c0.285,2.415,1.332,4.57,2.532,6.654c1.229,2.135,2.443,4.252,3.285,6.576
			c0.837,2.311,1.546,4.864,1.582,7.336c0.011,0.792-0.082,1.558-0.267,2.288c0.827-0.2,1.672-0.301,2.559-0.26
			c1.609,0.075,3.196,0.388,4.774,0.688c3.341,0.635,6.695,1.258,10.078,1.628c5.889,0.645,11.89,0.385,17.411-1.934
			c5.029-2.112,9.408-5.59,13.009-9.652c2.469-2.785,4.598-5.832,6.518-9.01C366.297,182.823,364.761,183.875,363.07,184.671z"/>
		<path style="fill:#1D1D1B;" d="M360.204,156.602c-0.425-0.43-0.972-0.779-1.471-1.118c-1.036-0.703-2.176-1.253-3.353-1.677
			c-2.432-0.877-5.237-0.914-7.762-0.486c-0.406,0.069-0.647-0.356-0.58-0.688c-0.864,0.641-1.743,1.26-2.637,1.847
			c-4.142,2.719-8.605,4.963-13.248,6.693c-2.159,0.804-4.377,1.454-6.612,2.016c2.536,0.848,5.113,1.598,7.744,2.083
			c2.861,0.527,5.759,0.653,8.662,0.71c2.95,0.057,5.899,0.104,8.849,0.156c2.033,0.035,4.076,0.119,6.115,0.098
			c0.9-3.298,2.78-6.209,4.783-8.968C360.549,157.032,360.4,156.801,360.204,156.602z"/>
		<path style="fill:#1D1D1B;" d="M391.099,141.552c6.677-0.865,13.449-0.219,19.935,1.511c-1.227-1.008-2.57-1.874-3.985-2.534
			c-5.464-2.548-11.784-2.393-17.542-1.034c-6.054,1.429-11.687,4.269-17.226,7.018c-0.488,0.242-0.91,0.099-1.178-0.208
			c-0.277,0.484-0.547,0.973-0.837,1.449c-1.201,1.969-2.54,3.839-3.914,5.684c1.539-1.58,3.208-3.031,5.022-4.326
			C377.235,144.927,383.977,142.474,391.099,141.552z"/>
		<path style="fill:#1D1D1B;" d="M361.941,155.576c2.451-3.282,4.99-6.496,7.05-10.048c3.723-6.42,6.244-13.523,7.292-20.873
			c0.527-3.699,0.684-7.442,0.422-11.17c-0.241-3.445-0.775-7.008-3.606-9.322c-0.519-0.424-1.079-0.788-1.657-1.121l-0.025,0.006
			c-0.492,0.149-0.97,0.344-1.432,0.571c-0.968,0.477-1.849,1.129-2.668,1.827c-1.761,1.499-3.36,3.199-4.853,4.962
			c-2.929,3.46-5.101,7.525-6.367,11.875c1.162,2.239,2.146,4.571,2.634,7.057c1.005,5.123-0.53,10.384-3.31,14.701
			c-2.063,3.204-4.819,5.884-7.843,8.193c2.965-0.762,5.942-0.56,8.878,0.296c1.504,0.439,2.971,1.085,4.273,1.964
			C361.128,154.764,361.586,155.142,361.941,155.576z"/>
		<path style="fill:#1D1D1B;" d="M346.447,109.201c0.674,0.538,1.331,1.092,1.941,1.689c1.055,1.033,1.842,2.188,2.458,3.444
			c0.315-0.054,0.643,0.041,0.849,0.375c0.372,0.604,0.81,1.154,1.157,1.774c0.331,0.592,0.67,1.18,1.008,1.768
			c0.603,1.049,1.2,2.103,1.777,3.168c1.265-4.313,3.427-8.306,6-11.989c1.414-2.025,3.013-4.001,4.89-5.618
			c0.823-0.709,1.72-1.324,2.678-1.835c-1.633-0.638-3.359-1.078-5.028-1.459c-3.317-0.757-6.707-1.218-10.109-1.314
			c-1.401-0.04-2.809-0.005-4.213,0.097c-0.272,0.343-0.656,0.432-1.019,0.64c-0.378,0.217-0.672,0.566-0.916,0.92
			c-0.582,0.845-0.922,1.903-1.143,2.895C346.384,105.521,346.383,107.377,346.447,109.201z"/>
		<path style="fill:#1D1D1B;" d="M282.556,151.404c-1.289-0.091-2.577-0.182-3.866-0.273c-2.623-0.185-5.247-0.37-7.87-0.555
			c-1.755-0.124-4.162-0.548-5.545,0.85c-1.389,1.404-1.549,3.912-1.779,5.76c-0.264,2.117-0.354,4.25-0.259,6.381
			c1.152-0.781,2.479-1.375,3.703-1.931c1.849-0.84,3.776-1.527,5.684-2.22c3.78-1.374,7.895-1.577,11.87-1.293
			c-0.905-2.149-1.504-4.418-1.884-6.726L282.556,151.404z"/>
		<path style="fill:#1D1D1B;" d="M260.4,165.186c-0.861-0.757-1.71-1.525-2.593-2.258c-1.71-1.419-3.488-2.776-5.388-3.933
			c-1.925-1.171-4.047-2.388-6.276-2.833c-2.444-0.488-4.999-0.451-7.488-0.464c-0.678,1.951-1.38,3.901-1.926,5.892
			c-1.061,3.867-1.382,7.84-0.802,11.815c0.289,1.978,0.764,3.897,1.474,5.768c0.543,1.431,1.252,2.777,1.913,4.149
			c1.613-0.731,3.362-1.208,5.049-1.634c3.407-0.862,6.853-1.56,10.254-2.448c3.016-0.788,5.992-1.797,8.892-2.946
			c-1.22-3.352-2.005-6.86-2.347-10.414C260.881,165.632,260.621,165.38,260.4,165.186z"/>
		<path style="fill:#1D1D1B;" d="M243.365,135.044c-2.118,3.218-4.624,6.207-7.387,8.843c-3.67,3.503-7.939,6.245-12.668,8.089
			c-5.411,2.11-11.02,3.737-16.506,5.641c-5.279,1.833-10.593,3.726-15.654,6.108c-3.691,1.738-7.406,3.992-9.814,7.355
			c5.443,1.035,11.001,1.405,16.534,1.062c5.411-0.335,10.787-1.302,15.962-2.921c2.575-0.806,5.102-1.765,7.561-2.877
			c2.483-1.122,5.087-2.316,7.089-4.208c1.993-1.883,3.411-4.362,4.829-6.681c1.576-2.576,3.068-5.203,4.486-7.869
			c1.59-2.99,3.017-6.042,4.396-9.118C242.584,137.328,242.974,136.186,243.365,135.044z"/>
		<path style="fill:#1D1D1B;" d="M153.092,162.997c-4.764,1.482-9.327,3.55-13.585,6.137c4.499-1.373,9.109-2.376,13.745-2.917
			c2.691-0.314,5.25-0.086,7.573,1.402c0.853,0.546,1.632,1.203,2.364,1.916l0.04-0.19c1.497-2.215,3.473-4.012,5.599-5.604
			c1.538-1.152,3.227-2.24,5.004-3.061c-0.67-0.09-1.343-0.164-2.015-0.209C165.529,160.045,159.088,161.132,153.092,162.997z"/>
		<path style="fill:#1D1D1B;" d="M120.073,165.32c0.211,0.678,0.363,1.383,0.505,2.052c0.25,1.18,0.434,2.378,0.537,3.58
			c0.103,1.192,0.117,2.387,0.083,3.583c-0.018,0.645-0.054,1.291-0.124,1.932c-0.028,0.253-0.052,0.523-0.087,0.791
			c1.41-0.816,2.832-1.605,4.27-2.344c3.024-1.553,6.166-2.93,9.381-4.129c-0.156-0.378-0.108-0.826,0.33-1.132
			c2.165-1.511,4.427-2.883,6.763-4.114C134.564,166.694,127.284,166.145,120.073,165.32z"/>
		<path style="fill:#1D1D1B;" d="M111.777,186.583c-3.245,3.483-4.813,8.269-5.663,12.871c-1.65,8.933-0.141,18.483,4.458,26.348
			c0.653,1.117,1.367,2.194,2.125,3.236c-0.057-0.25-0.128-0.494-0.17-0.75c-0.182-1.104-0.33-2.215-0.452-3.328
			c-0.233-2.135-0.286-4.284-0.257-6.43c0.057-4.274,0.417-8.662,1.627-12.776c4.009-13.63,19.186-19.664,32.201-20.289
			c3.326-0.16,6.752,0.083,9.868,1.345c3.228,1.307,5.644,3.795,7.42,6.741c1.281,2.125,2.199,4.451,2.541,6.885l0.012-0.269
			c-0.014-1.927-0.322-3.812-0.89-5.65c-1.039-3.361-3.027-6.623-5.824-8.808c-0.197-0.154,0.036-0.425,0.238-0.296
			c1.637,1.049,3.072,2.16,4.352,3.63c1.27,1.458,2.339,3.059,3.077,4.853c0.805,1.955,1.211,4.141,1.232,6.25
			c0.009,0.942-0.041,1.891-0.168,2.827c1.534-2.087,2.842-4.335,3.813-6.746c1.245-3.096,2.624-7.279,0.92-10.454
			c-0.145-0.27,0.023-0.514,0.257-0.619l0.056-0.109c-0.334-0.454-0.664-0.911-0.995-1.371c-2.937-4.07-5.72-8.273-9.157-11.952
			c-1.585-1.697-3.446-3.217-5.825-3.5c-2.397-0.286-4.954,0.303-7.308,0.732c-9.149,1.668-18.056,4.898-26.139,9.503
			c-2.01,1.146-3.974,2.374-5.882,3.683C115.31,183.466,113.382,184.86,111.777,186.583z"/>
		<path style="fill:#1D1D1B;" d="M118.137,200.949c-1.803,2.703-2.853,5.756-3.434,8.937c-0.653,3.575-1.006,7.198-1.037,10.833
			c-0.015,1.793,0.021,3.595,0.111,5.386c0.045,0.896,0.117,1.79,0.183,2.685c0.049,0.676,0.057,1.344,0.097,2.015
			c3.194,3.904,7.14,7.156,11.571,9.571c-1.007-1.346-1.867-2.833-2.628-4.235c-1.34-2.467-2.294-5.146-2.996-7.859
			c-1.423-5.496-1.769-11.224-1.081-16.859c0.682-5.588,2.171-11.264,6.154-15.435c2.088-2.187,4.556-4.076,7.217-5.607
			c-2.855,1.036-5.58,2.402-8.039,4.218C121.873,196.357,119.782,198.484,118.137,200.949z"/>
		<path style="fill:#1D1D1B;" d="M167.748,242.301c3.486-2.417,6.467-5.412,9.139-8.679c-1.783,0.789-3.616,1.467-5.484,2.027
			c-3.472,1.042-7.051,1.693-10.658,1.939c-0.406,0.812-0.747,1.665-1.081,2.504c-0.419,1.052-0.744,2.131-0.957,3.243
			c-0.213,1.107-0.313,2.225-0.285,3.353c0.012,0.514,0.047,1.028,0.1,1.539l0.021,0.185
			C161.442,246.153,164.725,244.397,167.748,242.301z"/>
		<path style="fill:#1D1D1B;" d="M190.42,263.892c0.334-0.548,0.671-1.093,1.005-1.64c-2.028-0.326-4.042-0.916-5.958-1.626
			c-3.849-1.427-7.461-3.518-10.609-6.154c-1.576-1.319-3.046-2.771-4.39-4.326c-0.672-0.777-1.266-1.631-1.974-2.375
			c-0.646-0.677-1.446-1.04-2.224-1.534l-0.154-0.195c-3.458,2.167-7.218,4.331-9.757,7.592c2.126,1.114,4.276,2.191,6.459,3.187
			c4.302,1.964,8.776,3.562,13.355,4.747c2.275,0.589,4.574,1.081,6.893,1.461c1.16,0.19,2.325,0.345,3.493,0.475
			c1.112,0.125,2.364,0.076,3.424,0.445c0.14,0.049,0.232,0.133,0.301,0.229C190.319,264.08,190.364,263.984,190.42,263.892z"/>
		<polygon style="fill:#1D1D1B;" points="190.278,265.023 190.266,264.974 190.227,265.032 		"/>
		<path style="fill:#1D1D1B;" d="M259.542,293.87c-0.703-1.717-1.42-3.458-2.263-5.129c-1.167-1.977-2.474-3.871-3.917-5.656
			c-1.95-2.086-4.206-3.9-6.367-5.745c-2.039-1.74-4.129-3.455-6.083-5.303l-0.258-0.199c-0.83-0.153-1.659-0.316-2.49-0.486
			c-12.818-2.634-25.762-5.455-38.931-4.948c-12.305,0.474-24.481,4.055-34.816,10.823c-0.933,0.611-1.843,1.26-2.738,1.929
			c0.417,0.522,0.996,0.883,1.601,1.18c0.876,0.43,1.741,0.887,2.605,1.342c1.694,0.892,3.367,1.837,5.096,2.661
			c1.7,0.81,3.473,1.409,5.372,1.454c0.84,0.02,1.688-0.067,2.515-0.209c0.459-0.079,0.917-0.177,1.369-0.289
			c0.19-0.047,0.364-0.067,0.54-0.088c1.664-0.932,3.388-1.767,5.139-2.545c1.852-0.824,3.723-1.605,5.581-2.416
			c0.832-0.545,1.656-1.104,2.459-1.689c0.191-0.139,0.378-0.185,0.556-0.187c0.42-0.302,0.843-0.601,1.26-0.908
			c1.289-0.948,2.638-1.873,4.119-2.498c0.785-0.331,1.809-0.685,2.777-0.727c1.912-0.741,3.954-1.062,6.088-1.002
			c3.367,0.094,6.67,1.095,9.795,2.288c3.139,1.198,6.162,2.684,9.039,4.419c2.877,1.736,5.689,3.683,8.172,5.955
			c0.48,0.439,0.942,0.894,1.404,1.349c-0.784-1.917-1.625-3.814-2.546-5.683c-0.265-0.537,0.092-1.219,0.611-1.431
			c0.166-0.068,0.327-0.081,0.482-0.068l0.042-0.018c0.924-0.231,1.939,0.004,2.862,0.19c0.945,0.19,1.879,0.449,2.792,0.758
			c1.744,0.59,3.393,1.406,4.961,2.365c5.875,3.593,10.067,9.188,13.502,15.043c1.108,1.888,2.214,3.809,3.248,5.76
			c-0.127-0.628-0.265-1.254-0.414-1.876C261.758,299.443,260.675,296.64,259.542,293.87z"/>
		<path style="fill:#1D1D1B;" d="M190.812,368.016c-2.618-1.318-4.601-3.669-6.43-5.898c-1.792-2.183-3.396-4.534-4.622-7.084
			c-1.319-2.741-2.039-5.67-2.279-8.697c-0.248-3.131-0.139-6.277-0.515-9.4c-0.38-3.162-1.111-6.27-1.905-9.35
			c-0.794-3.082-1.788-6.176-2.163-9.345c-0.129-1.089-0.169-2.205-0.08-3.306c-0.203-0.093-0.366-0.266-0.388-0.533
			c-0.048-0.552-0.128-1.076-0.221-1.62c-0.093-0.54-0.069-1.084-0.063-1.633c0.011-1.109,0.097-2.211,0.204-3.314
			c0.213-2.189,0.535-4.368,0.965-6.526c0.759-3.813,1.607-8.131,4.212-11.167c1.21-1.41,2.67-2.413,4.243-3.235l-0.313,0.1
			c-2.573,1.543-4.969,3.346-7.025,5.566c-5.23,5.647-8.36,13.153-8.748,20.835c-0.207,4.112,0.535,8.112,1.817,12.006
			c1.541,4.68,3.175,9.291,4.387,14.074c1.208,4.767,2.122,9.609,2.732,14.489c0.546,4.362,0.416,9.323,2.798,13.191
			c1.988,3.23,5.284,5.273,8.766,6.585c1.798,0.677,3.659,1.159,5.545,1.514c1.858,0.349,3.848,0.696,5.709,0.23
			c-0.058-0.528-0.091-1.051-0.117-1.538c-0.081-1.555,0.011-3.085,0.353-4.59C195.313,369.387,192.911,369.072,190.812,368.016z"/>
		<path style="fill:#1D1D1B;" d="M219.132,408.919c0.177,0.008,0.353,0.018,0.53,0.026c7.413,0.302,14.882,0.306,22.296,0.041
			c1.367-0.049,2.75-0.131,4.127-0.268c1.555-1.162,2.771-2.802,3.549-4.556c1.013-2.281,0.99-4.548,0.857-6.996
			c-0.146-2.713-0.682-5.363-1.317-8c-0.682-2.828-1.396-5.649-2.096-8.473c-0.348-1.405-0.704-2.81-0.999-4.227
			c-0.161-0.775-0.332-1.549-0.477-2.327c-0.065-0.347-0.136-0.698-0.178-1.049c-2.46-0.044-4.92-0.154-7.377-0.178
			c-2.837-0.028-5.682,0.03-8.523,0.154c-1.779,1.885-3.251,4.023-4.473,6.305c-2.358,4.401-3.461,9.279-4.322,14.161
			C219.829,398.627,219.775,403.797,219.132,408.919z"/>
		<path style="fill:#1D1D1B;" d="M219.44,418.964c0.505,2.788,1.13,5.547,1.818,8.294c0.688,2.746,1.439,5.469,2.266,8.176
			c0.413,1.351,0.837,2.699,1.287,4.038c0.25,0.746,0.673,1.605,0.848,2.453c6.143-3.086,11.887-6.979,17.036-11.473
			c8.342-7.28,15.173-16.273,19.847-26.299c-1.556,1.564-3.329,2.913-5.335,3.94c-5.87,3.004-12.713,3.125-19.157,3.203
			c-6.352,0.076-12.712,0.109-19.059-0.163c-0.077,1.17-0.214,2.324-0.139,3.516C218.943,416.1,219.182,417.536,219.44,418.964z"/>
		<path style="fill:#1D1D1B;" d="M268.055,375.212c-0.232-2.762-0.54-5.549-0.165-8.274c-1.562,1.305-3.416,2.29-5.257,3.132
			c-3.698,1.69-7.701,2.656-11.753,2.93c-1.246,0.084-2.494,0.107-3.742,0.108c0.139,0.42,0.249,0.853,0.368,1.261
			c0.235,0.804,0.477,1.607,0.694,2.416c0.46,1.711,0.876,3.434,1.303,5.153c0.736,2.961,1.524,5.915,2.175,8.897
			c0.614,2.814,1.129,5.806,0.624,8.674c-0.585,3.316-1.89,6.742-4.367,8.99c4.292-0.609,8.448-1.91,11.846-4.768
			c5.036-4.235,7.49-10.751,8.244-17.132C268.472,382.817,268.372,379,268.055,375.212z"/>
		<path style="fill:#1D1D1B;" d="M308.918,319.964c-0.892,2.977-1.328,6.036-0.821,9.181c0.571,3.546,2.288,6.811,4.093,9.871
			c1.352,2.292,2.792,4.53,4.237,6.764c0.025-0.19,0.057-0.379,0.097-0.565c0.407-1.916,1.163-3.778,2.09-5.497
			c1.948-3.616,4.608-6.752,7.397-9.741c1.837-1.97,3.689-3.922,5.504-5.905c-3.528-1.942-7.399-3.248-11.378-3.867
			c-2.116-0.329-4.251-0.389-6.389-0.414C312.22,319.774,310.459,319.587,308.918,319.964z"/>
		<path style="fill:#1D1D1B;" d="M349.973,352.535c3.219-0.422,6.471-1.003,9.599-1.878c3.016-0.844,5.923-2.027,8.547-3.751
			c2.539-1.668,4.814-3.703,6.917-5.887c2.178-2.261,4.196-4.668,6.225-7.061c2.315-2.73,4.63-5.46,6.946-8.189
			c1.564-1.844,3.128-3.688,4.691-5.531c-1.085,0.937-2.179,1.864-3.306,2.75c-4.73,3.722-9.871,6.922-15.43,9.251
			c-3.065,1.284-6.213,2.356-9.347,3.456c-3.074,1.079-6.15,2.151-9.239,3.187c-6.089,2.041-12.262,3.811-18.527,5.23
			c-3.157,0.715-6.336,1.332-9.538,1.807c-2.533,0.376-5.126,0.734-7.703,0.831c0.892,0.305,1.765,0.686,2.636,1.042
			c1.827,0.748,3.682,1.406,5.589,1.92c3.751,1.011,7.597,1.655,11.423,2.306C342.969,352.616,346.419,353.001,349.973,352.535z"/>
		<path style="fill:#1D1D1B;" d="M328.612,344.264c3.492-0.688,6.954-1.519,10.382-2.472c6.097-1.694,12.111-3.727,18.096-5.777
			c3.002-1.028,5.995-2.083,8.988-3.139c3.061-1.081,6.123-2.177,9.077-3.529c5.355-2.45,10.251-5.785,14.781-9.528
			c2.222-1.836,4.363-3.772,6.438-5.772c0.346-0.333,0.681-0.678,1.023-1.015c-0.412,0.109-0.827,0.208-1.248,0.292
			c-3.459,0.696-7.087,0.581-10.586,0.32c-13.671-1.018-28.385-3.936-41.081,2.971c-5.521,3.004-10.076,7.563-13.931,12.467
			c-4.15,5.279-7.489,11.091-11.246,16.636c1.355-0.191,2.715-0.349,4.069-0.55C325.127,344.91,326.873,344.606,328.612,344.264z"/>
		<path style="fill:#1D1D1B;" d="M332.695,322.766c2.845-3.165,5.57-6.428,7.951-9.99c3.551-5.31,6.275-11.253,7.389-17.551
			l-0.014,0.002c-0.695,0.051-1.389,0.11-2.082,0.175c-1.343,0.127-2.684,0.28-4.022,0.46c-4.752,0.638-9.419,1.634-14.073,2.771
			c-2.265,0.553-4.545,1.121-6.747,1.892c-1.86,0.651-3.807,1.571-5.085,3.121l-0.157,0.12c-0.555,1.432-1.143,2.853-1.79,4.25
			c-1.611,3.479-3.524,7.093-4.792,10.839c1.365-0.274,2.84-0.162,4.201-0.163c2.194-0.001,4.388,0.063,6.577,0.196
			c4.314,0.262,8.437,1.405,12.247,3.453C332.496,322.449,332.613,322.601,332.695,322.766z"/>
		<path style="fill:#1D1D1B;" d="M332.505,283.656c-2.03,1.182-3.961,2.486-5.809,3.937c-3.093,2.431-5.846,5.198-8.306,8.243
			c-0.493,1.946-1.073,3.869-1.737,5.766c1.184-1.127,2.65-1.9,4.206-2.547c4.536-1.887,9.282-3.289,14.091-4.282
			c2.431-0.502,4.878-0.917,7.34-1.232c1.252-0.16,2.507-0.297,3.764-0.411c0.642-0.058,1.534-0.257,2.302-0.186
			c0.048-0.427,0.116-0.849,0.148-1.279c0.277-3.73-0.133-7.49-1.246-11.062c-0.282-0.904-0.599-1.795-0.941-2.676
			c-2.558,0.768-5.074,1.6-7.519,2.685C336.658,281.561,334.533,282.475,332.505,283.656z"/>
		<path style="fill:#1D1D1B;" d="M337.629,249.123c-3.483,1.111-7.164,1.764-10.779,2.262c-3.707,0.512-7.448,0.775-11.189,0.816
			c-5.355,0.058-10.741-0.307-16.053-1.102c-0.295,0.84-0.785,1.665-1.133,2.439c-0.51,1.138-0.983,2.289-1.43,3.453
			c-0.878,2.286-1.678,4.607-2.425,6.94c-1.39,4.342-2.366,8.76-3.397,13.188l0.06-0.041c5.536-3.463,12.192-5.033,18.691-4.341
			c3.085,0.328,6.819,0.982,8.715,3.711c1.823,2.623,1.679,6.053,1.431,9.088c-0.237,2.898-0.688,5.762-1.323,8.583
			c0.847-1.082,1.736-2.133,2.652-3.159c3.198-3.583,7.015-6.732,11.071-9.298c2.056-1.301,4.116-2.542,6.355-3.506
			c2.133-0.918,4.336-1.711,6.586-2.292c-0.8-1.849-1.673-3.669-2.548-5.482C339.73,263.783,336.516,256.623,337.629,249.123z"/>
		<path style="fill:#1D1D1B;" d="M329.544,204.258c-0.794-0.104-1.585-0.222-2.375-0.351c0.839,3.698,1.454,7.466,2.074,11.2
			c0.617,3.719,1.225,7.44,1.807,11.165c0.539,3.446,1.002,6.95,0.441,10.424c-0.461,2.855-1.594,5.688-3.09,8.157
			c-0.97,1.601-2.273,3.316-3.848,4.541c2.144-0.244,4.281-0.558,6.4-0.967c3.206-0.619,6.887-1.196,9.581-3.174
			c5.589-4.104,5.107-12.017,4.373-18.094c-0.916-7.594-1.494-15.181-1.442-22.835l0.04-0.291
			C338.929,204.964,334.193,204.864,329.544,204.258z"/>
		<path style="fill:#1D1D1B;" d="M345.515,203.556c0.107,0.145,0.186,0.306,0.185,0.492c-0.013,1.924,0.005,3.849,0.06,5.773
			c0.111,3.939,0.368,7.874,0.769,11.794c0.165,1.616,0.378,3.234,0.575,4.853c-0.116,0.476-0.251,0.938-0.314,1.436
			c-0.067,0.524-0.06,1.05-0.054,1.577c0.011,1.13,0.104,2.253,0.243,3.373c0.139,1.116,0.305,2.236,0.554,3.333
			c0.017,0.074,0.035,0.155,0.052,0.23c0,0.079-0.004,0.158-0.003,0.237c0.009,2.802,0.21,5.609,0.734,8.364
			c0.432,2.27,1.13,4.452,2.45,6.369c1.203,1.748,2.727,3.224,4.354,4.574c3.543,2.942,7.412,5.478,11.013,8.35
			c3.635,2.899,7.348,6.095,10.043,9.918c1.189,1.686,2.112,3.55,2.414,5.592c0.321-1.255,0.611-2.518,0.809-3.797
			c0.541-3.487,0.429-7.012-0.683-10.381c-2.008-6.078-6.309-10.963-10.428-15.717c-2.106-2.431-4.299-4.855-5.916-7.652
			c-1.529-2.645-2.437-5.549-2.991-8.543c-1.14-6.165-0.639-12.553-2.2-18.653c-0.719-2.813-1.931-5.449-3.806-7.682
			c-1.722-2.05-3.904-3.474-6.433-4.295C346.467,203.261,345.994,203.424,345.515,203.556z"/>
		<path style="fill:#1D1D1B;" d="M358.875,215.682c1.623,6.257,1.362,12.811,2.857,19.092c0.736,3.093,2.042,5.923,3.941,8.472
			c2.008,2.696,4.295,5.174,6.472,7.732c4.151,4.877,8.091,10.237,9.396,16.64c0.16,0.786,0.268,1.58,0.336,2.378
			c0.339-1.582,0.641-3.172,0.901-4.769c0.88-5.394,1.578-11.836-1.42-16.74c-1.406-2.299-3.391-4.164-5.288-6.048
			c-2.223-2.208-4.445-4.417-6.667-6.627c-1.938-1.926-3.988-3.769-5.154-6.291c-1.004-2.171-1.351-4.57-1.557-6.931
			c-0.215-2.472-0.249-4.972-0.747-7.41c-0.541-2.65-1.698-5.355-3.149-7.635l-0.05-0.196c-0.302-0.187-0.608-0.367-0.909-0.556
			c-1.327-0.833-2.602-1.747-3.928-2.58c-1.389-0.872-3.013-1.74-4.672-1.979c-0.235,0.1-0.476,0.19-0.713,0.288
			C354.101,204.268,357.492,210.349,358.875,215.682z"/>
		<path style="fill:#1D1D1B;" d="M401.317,216.478c-1.372-3.184-2.611-6.431-4.402-9.414c-1.573-2.62-3.471-5.06-5.944-6.888
			c-2.736-2.023-5.923-3.289-9.188-4.178c-3.392-0.923-6.898-1.552-10.367-2.104c-3.211-0.511-6.477-0.838-9.725-0.598
			c-2.994,3.165-6.385,5.905-10.268,7.915c1.813,0.571,3.513,1.602,5.12,2.538c2.79,1.624,5.545,3.297,8.367,4.867
			c5.719,3.18,11.58,6.206,17.597,8.787c2.783,1.193,5.726,2.208,8.789,2.21c2.445,0.002,4.851-0.571,7.086-1.546
			C399.403,217.619,400.378,217.077,401.317,216.478z"/>
		<path style="fill:#1D1D1B;" d="M412.037,180.417c-1.385-0.769-2.77-1.538-4.155-2.307c-4.867-2.701-9.898-5.421-15.299-6.892
			c-5.205-1.418-10.786-1.518-16.161-1.598c-1.352,2.987-2.81,5.934-4.363,8.818c-2.657,4.933-5.799,9.822-9.603,14.03
			c3.519-0.295,7.047,0.095,10.535,0.686c3.557,0.602,7.147,1.206,10.647,2.089c3.363,0.848,6.667,2.071,9.446,4.191
			c5.032,3.838,7.893,9.925,10.103,15.727c2.527-1.993,4.657-4.507,6.26-7.279c3.067-5.305,4.528-11.324,5.411-17.339
			c0.399-2.714,0.687-5.444,0.926-8.179c-0.54-0.144-1.009-0.429-1.542-0.725C413.507,181.233,412.772,180.825,412.037,180.417z"/>
		<path style="fill:#1D1D1B;" d="M416.386,135.128c-0.351,0.007-0.71-0.022-1.061-0.023c-0.758-0.002-1.516,0.01-2.274,0.025
			c-1.428,0.028-2.874,0.065-4.294,0.223c-2.098,0.234-4.261,0.719-6.303,1.421c3.069,0.578,6.018,1.694,8.643,3.497
			c1.07,0.735,2.045,1.577,2.932,2.491c-0.058,0.129-0.052,0.296,0.069,0.417c0.224,0.225,0.335,0.519,0.538,0.759
			c0.204,0.243,0.418,0.474,0.619,0.721c0.395,0.487,0.767,0.994,1.168,1.476c0.191,0.23,0.383,0.46,0.575,0.69
			c1.113,2.057,1.832,4.327,2.025,6.745c0.105,1.306,0.119,2.623,0.107,3.942c0.113-0.199,0.233-0.393,0.344-0.594
			c1.174-2.135,2.392-4.252,3.007-6.632c0.565-2.189,0.595-4.426-0.07-6.596C421.354,140.241,419.041,137.484,416.386,135.128z"/>
		<path style="fill:#1D1D1B;" d="M408.357,134.039c1.533-0.254,3.055-0.485,4.607-0.594c0.443-0.031,0.888-0.043,1.331-0.06
			c-3.492-2.73-7.159-5.208-10.536-8.089c-0.241-0.206-0.473-0.423-0.712-0.631c-0.316,0.04-0.637,0.069-0.967,0.104
			c-0.82,0.088-1.639,0.185-2.456,0.299c-1.573,0.22-3.155,0.496-4.689,0.911c-4.776,1.291-9.137,3.791-12.804,7.089
			c-3.501,3.148-6.518,6.934-9.35,10.7c0.981-0.486,1.962-0.973,2.949-1.445c5.745-2.747,11.769-5.192,18.155-5.859
			c2.285-0.239,4.601-0.238,6.872,0.04c1.055-0.587,2.146-1.108,3.298-1.473C405.462,134.585,406.904,134.28,408.357,134.039z"/>
		<path style="fill:#1D1D1B;" d="M449.295,76.616c-1.523,2.19-3.165,4.294-4.918,6.305c-6.388,7.323-14.097,13.333-22.707,17.828
			c-4.25,2.219-8.716,4.07-13.32,5.414c-2.403,0.702-4.84,1.283-7.299,1.751c-2.22,0.423-4.44,0.914-6.585,1.637
			c2.419-0.047,4.837,0.5,7.186,1.054c1.565,0.369,3.129,0.715,4.732,0.868c1.632,0.157,3.269,0.156,4.906,0.122
			c5.569-0.115,11.297-0.173,16.679-1.779c2.297-0.685,4.534-1.641,6.521-2.993c2.074-1.411,3.763-3.215,5.147-5.302
			c1.444-2.179,2.527-4.584,3.557-6.979c1.163-2.702,2.262-5.432,3.335-8.171c1.092-2.786,2.19-5.573,3.218-8.384
			c0.481-1.315,0.915-2.644,1.262-3.993C450.452,74.879,449.891,75.759,449.295,76.616z"/>
		<path style="fill:#1D1D1B;" d="M417.759,89.93c-3.1,4.346-7.152,7.992-11.567,10.964c-0.647,0.435-1.315,0.837-1.976,1.249
			c-1.375,1.265-2.767,2.512-4.208,3.701c-0.352,0.29-0.708,0.579-1.067,0.864c0.714-0.178,1.432-0.347,2.15-0.511
			c2.631-0.603,5.231-1.276,7.792-2.135c9.055-3.036,17.336-7.681,24.708-13.746c3.637-2.992,6.988-6.319,10.004-9.936
			c1.525-1.829,2.971-3.726,4.321-5.688l0.155-0.237c-2.802,1.749-5.768,3.236-8.853,4.412c-4.612,1.758-9.401,2.877-13.732,5.323
			c-2.583,1.459-4.985,3.208-7.285,5.081C418.052,89.489,417.912,89.715,417.759,89.93z"/>
		<path style="fill:#1D1D1B;" d="M418.647,55.063c-0.878,5.466-1.911,10.9-3.501,16.208c-1.438,4.797-3.282,9.47-5.497,13.961
			c-3.306,6.703-7.444,13.096-12.448,18.684c0.516-0.354,1.038-0.699,1.567-1.034c1.375-0.872,2.771-1.707,4.151-2.567
			c0.913-0.841,1.815-1.693,2.712-2.549c3.518-3.357,7.015-6.807,10.774-9.909c3.271-4.783,5.33-10.299,5.204-16.267
			c-0.06-2.859-0.561-5.682-1.021-8.497c-0.469-2.865-0.81-5.701-0.855-8.608c-0.034-2.206,0-4.413,0.034-6.619
			C419.398,50.266,419.031,52.666,418.647,55.063z"/>
		<path style="fill:#1D1D1B;" d="M401.671,95.402c5.513-8.153,9.75-17.229,12.334-26.73c1.461-5.372,2.351-10.871,3.193-16.368
			c0.783-5.112,1.583-10.222,2.34-15.339c-2.418,0.87-4.801,1.843-7.115,2.961c-2.494,1.205-4.736,2.723-6.138,5.177
			c-1.196,2.093-1.828,4.433-2.265,6.788c-0.508,2.74-0.831,5.522-1.082,8.296c-0.533,5.901-0.518,11.833-0.905,17.743
			c-0.666,10.166-2.822,21.094-10.318,28.565l-0.087,0.066c0.152,0.349,0.314,0.693,0.478,1.036
			C395.518,103.717,398.779,99.68,401.671,95.402z"/>
		<path style="fill:#1D1D1B;" d="M369.437,89.641c-1.721,1.408-3.378,2.892-4.97,4.443c-0.812,0.791-1.595,1.607-2.378,2.426
			c-0.329,0.344-0.667,0.749-1.034,1.116c1.969,0.318,3.922,0.733,5.842,1.265c3.334,0.923,6.704,2.231,9.034,4.903
			c2.502,2.868,2.898,6.886,3.076,10.53c0.19,3.887-0.028,7.798-0.645,11.64c-0.855,5.325-2.471,10.505-4.72,15.397
			c1.073-1.49,2.174-2.961,3.355-4.368c3.221-3.836,6.901-7.528,11.145-10.229c2.252-1.433,4.648-2.475,7.231-3.149
			c1.478-0.385,2.981-0.643,4.494-0.846c0.32-0.043,0.642-0.076,0.963-0.114c-2.151-2.028-4.186-4.181-6.006-6.508
			c-2.556-3.268-4.707-6.902-6.112-10.814c-1.562-4.349-1.856-9.02-3.368-13.376c-0.768-2.212-1.958-4.188-3.164-6.182
			c-0.598-0.989-1.188-1.987-1.715-3.016l-0.075-0.163c-1.82,1.153-3.775,2.134-5.63,3.229
			C372.869,86.942,371.135,88.252,369.437,89.641z"/>
		<path style="fill:#1D1D1B;" d="M348.645,97.193c2.581-0.258,5.191-0.3,7.791-0.116c1.206,0.085,2.409,0.229,3.607,0.399
			c0.389-0.607,0.931-1.157,1.384-1.651c0.764-0.834,1.56-1.642,2.367-2.434c1.587-1.56,3.247-3.045,4.968-4.455
			c1.782-1.46,3.634-2.837,5.454-4.249c1.697-1.317,3.537-2.652,5.479-3.598c-0.164-0.402-0.306-0.943-0.628-1.254
			c-0.644-0.621-2.072-0.566-2.897-0.546c-1.165,0.028-2.33,0.221-3.459,0.504c-2.09,0.525-4.136,1.319-6.097,2.205
			C359.352,85.28,353.117,90.61,348.645,97.193z"/>
		<path style="fill:#1D1D1B;" d="M337.685,86.192c-0.436,2.52-0.752,5.077-0.92,7.629c-0.083,1.257-0.144,2.519-0.137,3.779
			c0.004,0.859,0.149,1.865,0.039,2.775c2.995-1.383,6.161-2.306,9.404-2.839c-0.038-0.298,0.036-0.613,0.212-0.885
			c0.577-0.896,1.184-1.773,1.824-2.626c3.105-4.132,6.955-7.707,11.274-10.567c-2.344-0.414-4.632-1.695-6.496-3.014
			c-3.569-2.525-6.985-5.252-10.613-7.698c-0.169-0.114-0.34-0.225-0.51-0.338c-0.136,0.359-0.295,0.712-0.434,1.061
			c-0.228,0.575-0.457,1.15-0.672,1.73c-0.431,1.159-0.827,2.332-1.191,3.514C338.711,81.164,338.122,83.667,337.685,86.192z"/>
		<path style="fill:#1D1D1B;" d="M317.691,81.38c1.651,2.027,3.091,4.188,4.268,6.526c1.194,2.371,2.055,4.951,2.276,7.606
			c0.185,2.23,0.098,4.505-0.304,6.713c1.081-0.458,2.175-0.876,3.304-1.16c2.38-0.6,4.732-0.295,6.977,0.567
			c0.47-0.268,0.946-0.523,1.426-0.765c-0.368-0.958-0.333-2.104-0.374-3.098c-0.054-1.322-0.087-2.643-0.07-3.966
			c0.036-2.646,0.235-5.268,0.636-7.884c0.402-2.621,0.961-5.217,1.682-7.768c0.362-1.281,0.758-2.552,1.198-3.809
			c0.349-0.998,0.674-2.163,1.228-3.107c-2.445-1.514-5.006-2.849-7.75-3.727c-3.656-1.17-7.337-1.055-11.074-0.379
			c-5.369,0.972-10.591,2.711-15.511,5.069c2.428,0.54,4.724,1.98,6.599,3.508C314.239,77.365,316.034,79.346,317.691,81.38z"/>
		<path style="fill:#1D1D1B;" d="M293.039,101.943c4.039-0.218,8.332-0.521,12.288,0.518c2.78,0.73,5.509,2.592,6.086,5.405
			c2.769-1.244,5.54-2.483,8.308-3.73c1.18-0.532,2.362-1.11,3.561-1.642c0.408-2.604,0.133-5.173-0.677-7.704
			c-1.511-4.722-3.971-8.869-7.168-12.647c-1.549-1.831-3.212-3.586-5.113-5.058c-1.904-1.474-3.92-2.388-6.258-2.92
			c-0.476-0.108-0.741-0.421-0.841-0.772l-0.246,0.126c-5.659,3.037-10.88,6.988-15.32,11.63c-4.601,4.81-8.17,10.539-13.064,15.067
			c1.935,0.506,3.882,0.969,5.854,1.308C284.648,102.247,288.801,102.172,293.039,101.943z"/>
		<path style="fill:#1D1D1B;" d="M273.159,105.257c3.375,3.015,6.421,6.478,8.606,10.458c1.009,1.838,1.882,3.803,2.4,5.839
			c0.264,1.037,0.554,2.078,0.666,3.146c0.063,0.604,0.095,1.212,0.112,1.819c1.413-2.741,3.36-5.173,5.744-7.296
			c1.584-1.41,3.308-2.633,5.108-3.741l-0.011-0.018c-0.403-1.838-0.848-3.694-1.509-5.46c-0.33-0.88-0.701-1.746-1.124-2.585
			c-0.423-0.838-1.028-1.593-1.411-2.444c-0.138-0.307-0.066-0.57,0.105-0.748c-1.018,0.054-2.036,0.1-3.054,0.12
			c-4.031,0.08-7.98-0.375-11.908-1.277c-2.654-0.609-5.411-1.706-8.101-1.4c0.478,0.364,0.947,0.74,1.413,1.108
			C271.204,103.579,272.199,104.399,273.159,105.257z"/>
		<path style="fill:#1D1D1B;" d="M260.126,126.797c2.969,0.402,5.941,0.871,8.776,1.868c2.346,0.825,4.405,2.145,6.202,3.86
			c2.796,2.666,5.018,5.938,6.934,9.326c0.009-0.588,0.008-1.176,0.027-1.764c0.09-2.723,0.287-5.46,0.891-8.123
			c0.298-1.314,0.707-2.57,1.209-3.774l-0.041-0.154c-0.158-2.309-0.758-4.619-1.574-6.777c-1.488-3.935-3.813-7.436-6.644-10.535
			c-1.482-1.622-3.107-3.104-4.777-4.528c-0.854-0.728-1.726-1.434-2.612-2.122c-0.716-0.556-1.467-1.091-2.161-1.681
			c-2.821,1.418-4.936,4.201-6.836,6.628c-2.179,2.785-4.14,5.741-5.749,8.892c-1.32,2.585-2.421,5.343-3.174,8.184
			C253.773,125.978,256.992,126.372,260.126,126.797z"/>
		<path style="fill:#1D1D1B;" d="M254.699,146.317c2.49,1.929,5.434,3.17,8.324,4.368c0.936-1.341,2.348-2.198,4.093-2.414
			c1.106-0.137,2.236-0.049,3.344,0.029c1.381,0.097,2.761,0.195,4.142,0.292c2.566,0.181,5.133,0.362,7.699,0.543
			c-0.07-0.66-0.13-1.321-0.173-1.98c-0.023-0.361-0.02-0.722-0.036-1.083l-0.102-0.11c-1.371-2.355-2.66-4.751-4.198-7.005
			c-2.61-3.824-6.047-7.637-10.479-9.323c-1.363-0.519-2.834-0.767-4.267-1.014c-1.489-0.256-2.983-0.479-4.482-0.669
			c-2.729-0.347-5.484-0.513-8.21-0.882c-0.867,3.693-1.125,7.51-0.462,11.265C250.469,141.595,252.083,144.29,254.699,146.317z"/>
		<path style="fill:#1D1D1B;" d="M246.414,134.477c-0.73,1.862-1.537,3.697-2.376,5.514c-0.92,2.689-1.84,5.378-2.761,8.066
			c-0.788,2.3-1.576,4.601-2.364,6.901l-0.063,0.181c2.481-0.089,4.935-0.075,7.405,0.274c2.376,0.336,4.643,0.761,6.816,1.818
			c2.12,1.031,4.064,2.383,5.89,3.867c0.69,0.561,1.356,1.158,2.021,1.754c-0.031-1.309-0.01-2.619,0.083-3.927
			c0.147-2.053,0.385-4.211,1.018-6.191c-3.494-1.451-7.118-3.015-9.922-5.623c-3.071-2.857-4.459-6.65-4.77-10.776
			c-0.073-0.968-0.087-1.932-0.066-2.894C247.063,133.821,246.758,134.166,246.414,134.477z"/>
		<path style="fill:#1D1D1B;" d="M184.614,130.04c4.839-1.805,9.89-2.62,15.051-2.646c5.78-0.03,11.505,0.762,17.227,1.481
			c9.772,1.228,20.275,2.162,29.405-2.262c0.056-0.148,0.118-0.294,0.175-0.442c-0.783,0.028-1.576-0.03-2.339-0.109
			c-1.616-0.167-3.219-0.429-4.813-0.741c-3.244-0.637-6.434-1.501-9.635-2.318c-5.617-1.434-11.27-2.636-17.099-2.45
			c-2.891,0.092-5.775,0.379-8.649,0.697c-2.742,0.303-5.485,0.653-8.194,1.181c-8.245,1.607-16.911,5.471-21.26,12.886
			c0.866-0.615,1.748-1.208,2.673-1.752C179.526,132.173,182.04,131.001,184.614,130.04z"/>
		<path style="fill:#1D1D1B;" d="M191.165,143.775c2.947,0.543,5.914,0.972,8.883,1.382c3.076,0.424,6.154,0.923,9.26,1.055
			c4.77,0.202,9.603-0.538,14.131-2.035c4.586-1.515,8.896-3.793,12.725-6.737c1.9-1.461,3.673-3.078,5.287-4.85
			c0.705-0.774,1.376-1.58,2.019-2.407c-3.82,1.272-7.869,1.841-11.893,1.942c-11.071,0.279-21.918-2.813-32.982-2.488
			c-4.924,0.145-9.911,1.034-14.582,2.605c-3.657,1.229-7.265,2.963-10.548,5.084c-0.123,0.277-0.248,0.552-0.359,0.837
			c2.731,1.243,5.509,2.405,8.371,3.31C184.644,142.476,187.898,143.173,191.165,143.775z"/>
		<path style="fill:#1D1D1B;" d="M182.584,163.167c-0.421,0.884-0.812,1.783-1.166,2.695c-0.362,0.936-0.712,1.896-1.021,2.868
			c2.76-3.26,6.524-5.521,10.424-7.312c5.165-2.373,10.556-4.292,15.925-6.142c5.438-1.874,11.034-3.374,16.392-5.468
			c4.754-1.858,8.948-4.575,12.587-8.16c1.203-1.186,2.32-2.436,3.391-3.723c-0.979,0.831-1.989,1.625-3.037,2.365
			c-8.34,5.892-18.624,8.875-28.822,8.033c-3.204-0.264-6.386-0.793-9.559-1.296c-0.12-0.019-0.239-0.039-0.359-0.058
			c-0.756,0.826-1.923,1.315-2.843,1.947c-0.935,0.643-1.847,1.327-2.693,2.083c-3.029,2.706-5.748,5.892-7.777,9.417
			c-0.407,0.707-0.777,1.434-1.14,2.165C182.929,162.809,182.794,163.074,182.584,163.167z"/>
		<path style="fill:#1D1D1B;" d="M162.73,147.966c-0.826,2.001-1.733,3.969-2.613,5.946c-0.889,1.999-1.775,4.024-2.886,5.912
			c2.056-0.468,4.132-0.839,6.223-1.095c3.352-0.41,6.781-0.566,10.135-0.101c1.703,0.236,3.383,0.639,5.001,1.223
			c0.966,0.349,1.978,0.814,2.87,1.414c1.327-2.813,3.067-5.451,5.103-7.773l0.048-0.051c-6.79-2.518-12.905-6.663-18.134-11.638
			c-1.383-1.316-2.772-2.532-4.293-3.574c0.011,0.119,0.021,0.237,0.032,0.346c0.103,1.058,0.117,2.138,0.039,3.198
			C164.1,143.914,163.546,145.988,162.73,147.966z"/>
		<path style="fill:#1D1D1B;" d="M152.493,147.698c0.284,2.424,0.323,4.84,0.134,7.274c-0.096,1.239-0.239,2.474-0.43,3.701
			c-0.137,0.883-0.268,1.792-0.492,2.667c1.543-0.5,3.109-0.925,4.686-1.307l-0.003-0.092c1.514-4.106,3.826-7.853,4.743-12.18
			c0.422-1.991,0.783-4.039,0.903-6.072c0.056-0.95,0.058-1.894-0.035-2.842c-0.065-0.66-0.307-1.405-0.368-2.112
			c-0.282-0.137-0.565-0.274-0.86-0.399c-2.69-1.14-5.627-1.735-8.549-1.754c-0.874-0.006-1.732,0.054-2.579,0.15
			c0.807,1.802,1.25,3.845,1.645,5.736C151.787,142.847,152.211,145.285,152.493,147.698z"/>
		<path style="fill:#1D1D1B;" d="M134.197,164.499c4.422,0.052,8.803-0.445,13.082-1.549c0.895-0.365,1.8-0.702,2.711-1.026
			l-0.006-0.067c0.124-1.229,0.451-2.447,0.634-3.67c0.172-1.147,0.303-2.299,0.392-3.456c0.18-2.324,0.245-4.672,0.208-7.003
			c-0.038-2.347-0.281-4.613-0.792-6.906c-0.27-1.213-0.587-2.417-0.941-3.607c-0.234-0.787-0.505-1.559-0.721-2.348
			c-4.888,0.758-9.324,3.098-13.237,6.232c-5.41,4.333-9.682,9.842-14.635,14.653c-2.175,2.113-4.486,4.06-7.161,5.513
			c-0.658,0.357-1.346,0.683-2.053,0.967c2.73,0.315,5.454,0.692,8.176,1.042C124.607,163.885,129.4,164.443,134.197,164.499z"/>
		<path style="fill:#1D1D1B;" d="M100.377,167.917c2.98,2.66,5.511,5.801,7.327,9.366c0.87,1.708,1.493,3.522,1.879,5.398
			c0.186,0.904,0.3,1.82,0.354,2.741c0.884-0.967,1.853-1.859,2.887-2.683c1.99-1.587,4.107-3.034,6.288-4.376
			c-0.052-0.115-0.074-0.249-0.053-0.405c-0.018-0.587,0.157-1.175,0.256-1.752c0.095-0.555,0.183-1.111,0.249-1.67
			c0.134-1.132,0.182-2.273,0.155-3.413c-0.027-1.127-0.122-2.252-0.298-3.367c-0.136-0.859-0.388-1.717-0.559-2.577
			c-0.227-0.027-0.454-0.052-0.681-0.079c-4.65-0.557-9.314-1.171-13.999-1.334c-2.768-0.096-5.596,0.056-8.28,0.749
			c0.619,0.363,1.209,0.789,1.753,1.184C98.602,166.387,99.504,167.138,100.377,167.917z"/>
		<path style="fill:#1D1D1B;" d="M84.884,188.786c2.553-0.126,5.15,0.002,7.656,0.521c2.482,0.514,4.929,1.251,7.3,2.144
			c1.153,0.434,2.294,0.914,3.395,1.466c0.641,0.321,1.337,0.66,1.971,1.067c0.648-1.985,1.457-3.911,2.552-5.699
			c0.401-0.656,0.854-1.269,1.33-1.862c-0.021-0.117-0.043-0.236-0.062-0.356c-0.085-0.564-0.196-1.125-0.33-1.679
			c-0.271-1.117-0.645-2.209-1.098-3.265c-0.909-2.117-2.061-4.087-3.449-5.924c-1.399-1.85-2.976-3.536-4.685-5.103
			c-0.9-0.826-1.836-1.617-2.812-2.35c-0.518-0.389-1.05-0.767-1.606-1.102c-0.577-0.347-1.213-0.593-1.763-0.982l-0.173-0.182
			c-0.304,0.134-0.61,0.262-0.907,0.416c-7.714,3.989-10.873,13.006-12.77,20.904c-0.216,0.897-0.405,1.8-0.593,2.702
			c0.79-0.152,1.603-0.242,2.363-0.355C82.424,188.967,83.652,188.846,84.884,188.786z"/>
		<path style="fill:#1D1D1B;" d="M90.207,206.198c2.616-0.328,5.121-0.21,7.696,0.325c1.178,0.245,2.342,0.535,3.486,0.909
			c0.605,0.198,1.267,0.404,1.898,0.666c-0.167-4.312,0.316-8.648,1.506-12.793l0.081-0.258c-0.723-0.311-1.424-0.704-2.129-1.016
			c-1.13-0.499-2.275-0.959-3.446-1.352c-2.28-0.766-4.649-1.222-7.042-1.453c-2.365-0.228-4.732-0.367-7.108-0.288
			c-1.233,0.041-2.465,0.142-3.688,0.304c-1.028,0.136-2.047,0.446-3.071,0.605c-0.545,3.01-0.957,6.045-1.198,9.095
			c-0.232,2.934-0.625,6.382,0.146,9.39C81.479,208.487,85.652,206.769,90.207,206.198z"/>
		<path style="fill:#1D1D1B;" d="M103.356,209.464c-0.79-0.216-1.575-0.509-2.357-0.688c-1.186-0.271-2.397-0.478-3.611-0.564
			c-2.358-0.167-4.828-0.096-7.169,0.236c-4.201,0.596-8.266,2.165-12.195,3.78c0.195,0.401,0.414,0.792,0.674,1.163
			c1.142,1.629,2.698,2.458,4.662,2.678c2.349,0.263,4.749,0.26,7.109,0.37c4.714,0.219,9.428,0.439,14.142,0.658
			C103.951,214.601,103.541,212.04,103.356,209.464z"/>
		<path style="fill:#1D1D1B;" d="M43.737,232.265c2.275-3.709,4.622-7.825,8.553-9.996c1.945-1.074,4.129-1.594,6.304-1.962
			c2.452-0.416,4.926-0.71,7.4-0.964c3.721-0.382,7.45-0.69,11.18-0.985c-5.06-0.186-10.127-0.478-15.19-0.369
			c-4.713,0.102-9.527,0.481-13.509,3.255c-7.323,5.101-9.645,14.058-11.245,22.423c0.074-0.151,0.148-0.302,0.222-0.453
			c0.6-1.228,1.312-2.411,1.982-3.602C40.826,237.138,42.253,234.685,43.737,232.265z"/>
		<path style="fill:#1D1D1B;" d="M73.268,242.111c1.217-2.786,2.617-5.479,4.179-8.083c-1.115,0.992-2.253,1.957-3.459,2.845
			c-3.518,2.591-7.405,4.693-11.461,6.31c-1.227,0.489-2.476,0.921-3.734,1.325l-0.108,0.183c-1.241,1.42-2.709,2.597-3.891,4.083
			c-1.126,1.415-2.062,2.96-2.816,4.604c-1.64,3.575-2.349,7.53-2.225,11.455c0.115,3.647,0.867,7.253,2.129,10.672
			c0.622,1.685,1.36,3.337,2.256,4.895c0.451,0.784,0.942,1.547,1.467,2.284c0.187,0.263,0.508,0.815,0.885,1.104l0.096-0.07
			c0.536-0.274,1.06-0.567,1.577-0.872c0.075-0.121,0.147-0.241,0.21-0.337c0.513-0.784,1.001-1.585,1.466-2.398
			c0.956-1.671,1.818-3.394,2.591-5.156c1.565-3.569,2.771-7.283,3.86-11.021C68.428,256.59,70.196,249.143,73.268,242.111z"/>
		<path style="fill:#1D1D1B;" d="M80.158,233.408c-0.4,0.69-0.801,1.378-1.181,2.08c-2.094,3.864-3.95,7.874-5.453,12.005
			c-2.794,7.678-4.398,15.723-7.101,23.431c-1.056,3.011-2.305,5.946-3.8,8.759c1.531-1.27,2.971-2.653,4.315-4.113
			c2.742-2.98,5.177-6.252,7.414-9.625c2.426-3.657,4.302-7.536,5.038-11.891C80.54,247.235,79.564,240.253,80.158,233.408z"/>
		<path style="fill:#1D1D1B;" d="M75.04,233.18c2.936-2.479,5.574-5.275,8.323-7.954c0.63-0.884,1.382-1.685,2.212-2.378
			c0.62-0.518,1.269-0.985,1.943-1.407c1.12-0.927,2.312-1.818,3.586-2.52c-0.936,0.108-1.871,0.22-2.809,0.317
			c-2.763,0.288-5.526,0.577-8.289,0.864c-4.946,0.514-9.906,0.912-14.844,1.502c-2.342,0.28-4.689,0.59-7.003,1.046
			c-2.02,0.398-4.051,0.974-5.751,2.176c-1.68,1.188-2.971,2.812-4.132,4.492c-1.338,1.938-2.566,3.957-3.772,5.979
			c-1.24,2.08-2.44,4.183-3.62,6.298c-0.581,1.041-1.144,2.09-1.777,3.101c-0.213,0.34-0.423,0.68-0.636,1.016
			c1.906-0.184,3.815-0.323,5.722-0.514c2.474-0.247,4.944-0.611,7.381-1.105C60.117,242.364,68.348,238.829,75.04,233.18z"/>
		<path style="fill:#1D1D1B;" d="M84.632,227.096l-0.261,0.259c-1.386,2.872-0.752,6.386,0.037,9.379l0.082,0.272
			c0.701-1.381,1.926-2.545,3.011-3.59c0.943-0.909,1.927-1.773,2.864-2.688c0.853-0.833,1.696-1.566,2.8-2.047
			c2.357-1.027,4.969-1.458,7.471-1.98c2.385-0.498,4.779-0.926,7.192-1.254c-0.274-0.52-0.538-1.046-0.789-1.579
			c-0.628-1.333-1.169-2.704-1.643-4.098c-3.678-0.25-7.552-0.066-11.116,0.894c-1.309,0.352-2.651,0.821-3.931,1.428
			C88.296,223.57,86.435,225.329,84.632,227.096z"/>
		<path style="fill:#1D1D1B;" d="M94.38,229.76c-2.233,0.813-4.072,2.109-5.801,3.712c-1.438,1.333-2.996,2.753-3.772,4.58
			c0.948,3.128,2.255,6.141,3.625,9.104c1.304,2.822,2.609,5.667,4.296,8.282c0.423-1.034,1.017-2.026,1.552-2.992
			c0.6-1.085,1.243-2.147,1.899-3.199c2.161-3.464,4.535-7.128,7.911-9.534c1.649-1.175,3.524-2.044,5.348-2.91
			c0.973-0.462,1.93-0.953,2.889-1.443c0.626-0.32,1.278-0.659,1.94-0.956c-2.238-2.377-4.21-5.004-5.825-7.847
			C103.676,227.153,98.902,228.115,94.38,229.76z"/>
		<path style="fill:#1D1D1B;" d="M121.912,250.34c0.637-1.903,1.429-3.906,2.744-5.448c0.497-0.583,1.09-1.132,1.748-1.572
			c-0.237-0.113-0.476-0.221-0.71-0.339c-4.04-2.038-7.702-4.769-10.859-7.994c-0.9,0.439-1.859,0.798-2.77,1.163
			c-1.321,0.53-2.613,1.081-3.854,1.784c-2.25,1.274-3.936,3.226-5.532,5.224c-1.617,2.023-3.04,4.234-4.372,6.452
			c-0.729,1.213-1.416,2.449-2.092,3.691c-0.674,1.237-1.234,2.564-2.019,3.735c-0.064,0.096-0.139,0.157-0.214,0.218
			c1.965,2.573,4.346,4.797,6.985,6.668c5.531,3.92,12.202,6.338,19,6.954c-0.369-0.893-0.247-2.141-0.318-3.013
			c-0.108-1.323-0.098-2.639-0.06-3.966C119.725,259.301,120.451,254.706,121.912,250.34z"/>
		<path style="fill:#1D1D1B;" d="M138.481,267.599c-0.291-1.927-0.447-3.89-0.784-5.791c-0.373-2.102-1.046-4.129-1.799-6.122
			c-0.722-1.911-1.505-3.803-2.442-5.619c-0.927-1.797-2.155-3.358-3.229-5.059c-0.168-0.266-0.319-0.536-0.462-0.809
			c-0.278,0.212-0.641,0.311-1.058,0.143c-0.432-0.174-0.859-0.359-1.284-0.548c-1.435,0.853-2.559,2.043-3.352,3.65
			c-1.161,2.353-1.299,5.114-1.59,7.683c-0.306,2.708-0.519,5.424-0.637,8.147c-0.059,1.358-0.028,2.719-0.09,4.076
			c-0.033,0.725-0.018,1.443-0.001,2.168c0.012,0.503,0.065,1.027-0.104,1.486C127.436,271.269,133.254,270.204,138.481,267.599z"/>
		<path style="fill:#1D1D1B;" d="M142.137,272.288c0.901,1.76,2.577,3.305,4.471,3.717c-0.568-0.764-0.967-1.684-1.312-2.538
			c-0.572-1.416-0.987-2.886-1.369-4.363c-1.448-5.604-2.393-11.32-2.431-17.118c-0.036-5.448,0.322-11.23,2.642-16.243
			c-1.522-0.47-3.009-1.031-4.417-1.716c-1.618-0.787-3.217-1.638-4.748-2.583c-1.26,1.15-2.024,2.647-2.742,4.199
			c-0.834,1.804-1.743,3.93-1.253,5.955c0.399,1.649,1.594,2.991,2.533,4.355c1.064,1.545,1.966,3.204,2.752,4.906
			c1.585,3.428,2.986,7.08,3.633,10.812C140.515,265.227,140.456,269.002,142.137,272.288z"/>
		<path style="fill:#1D1D1B;" d="M157.428,249.337c-0.408-0.73-0.256-1.929-0.235-2.664c0.034-1.173,0.178-2.351,0.417-3.499
			c0.242-1.163,0.591-2.309,1.045-3.406c0.323-0.778,0.753-1.467,1.222-2.141c-3.191,0.16-6.397,0.017-9.565-0.479
			c-1.919-0.3-3.87-0.719-5.772-1.283c-0.826,2.897-1.544,5.816-1.874,8.816c-0.618,5.617,0.173,11.173,1.254,16.682
			c0.536,2.727,1.194,5.445,1.945,8.121c0.357,1.272,0.756,2.541,1.262,3.763c0.387,0.936,0.864,1.84,1.176,2.802
			c0.439-0.074,0.879-0.209,1.317-0.432c0.542-0.277,1.249,0.099,1.459,0.623l0.002,0.013l0.05,0.037
			c-0.771-8.939-1.993-18.409,4.598-25.357C156.27,250.365,156.842,249.842,157.428,249.337z"/>
		<path style="fill:#1D1D1B;" d="M96.859,310.601c7.777-6.838,16.246-12.732,25.389-17.597c4.531-2.41,9.193-4.575,13.963-6.467
			c2.403-0.953,4.832-1.839,7.284-2.656c1.226-0.408,2.458-0.799,3.696-1.173c1.252-0.378,2.504-0.803,3.802-0.975
			c0.185-0.024,0.345,0.004,0.487,0.059c-0.009-0.369-0.023-0.74-0.04-1.114l-0.033-0.054c-0.137-0.217-0.267-0.439-0.4-0.658
			c-0.712,0.152-1.419,0.335-2.135,0.456c-0.847,0.143-1.712,0.229-2.564,0.337c-1.669,0.211-3.344,0.386-5.013,0.601
			c-3.295,0.423-6.588,0.851-9.865,1.399c-5.884,0.984-11.72,2.225-17.409,4.042c-2.727,0.871-5.552,1.767-8.065,3.159
			c-2.49,1.38-4.368,3.467-6,5.762c-3.401,4.782-5.788,10.186-8.08,15.56c-1.048,2.456-2.084,4.918-3.183,7.352
			C91.292,315.842,93.973,313.138,96.859,310.601z"/>
		<path style="fill:#1D1D1B;" d="M144.491,298.307c2.471-4.739,4.717-9.593,6.763-14.53c-1.255,0.504-2.589,0.818-3.88,1.215
			c-1.381,0.425-2.754,0.872-4.121,1.34c-2.661,0.912-5.294,1.906-7.894,2.979c-9.379,3.87-18.278,8.776-26.661,14.485
			c-4.178,2.845-8.229,5.876-12.083,9.149c-3.109,2.64-6.187,5.36-9.097,8.231l-0.112,0.238c-0.102,0.211-0.202,0.446-0.307,0.681
			c6.449-0.531,12.96,0.054,19.421-0.03c9.934-0.129,21.117-1.65,28.533-8.956c2.008-1.978,3.554-4.331,4.977-6.75
			C141.585,303.715,143.072,301.029,144.491,298.307z"/>
		<path style="fill:#1D1D1B;" d="M154.594,344.134c1.889-0.206,3.804-0.515,5.605-1.133c0.845-0.29,1.679-0.64,2.454-1.086
			c0.425-0.245,0.841-0.519,1.228-0.822c0.271-0.212,0.499-0.463,0.74-0.702c1.12-5.299,1.324-10.764-0.124-16.052
			c-0.068-0.247,0.016-0.458,0.162-0.593c-0.084-0.301-0.175-0.6-0.252-0.903c-1.018-3.986-1.226-8.142-0.692-12.22
			c1.053-8.032,4.942-15.624,10.929-21.09c0.724-0.661,1.483-1.27,2.263-1.847c-0.279,0.002-0.558,0.016-0.838,0.003
			c-2.202-0.099-4.235-0.888-6.161-1.915c-2.029-1.081-4.02-2.247-6.009-3.4c-0.81-0.47-1.731-0.9-2.392-1.578
			c-0.339-0.348-0.534-0.691-0.606-1.062c-3.535,2.751-6.691,5.988-9.056,9.811c-1.6,2.586-2.835,5.456-3.513,8.423
			c-0.697,3.05-0.721,6.071-0.346,9.165c0.386,3.185,0.916,6.354,0.55,9.57c-0.355,3.116-1.394,6.118-2.496,9.038
			c-1.104,2.924-2.327,5.828-3.021,8.885c-0.626,2.757-0.748,5.569-0.44,8.373C146.165,345.035,150.654,344.564,154.594,344.134z"/>
		<path style="fill:#1D1D1B;" d="M121.414,392.137c-3.984,3.844-7.9,7.766-11.693,11.793c-2.231,2.369-4.407,4.788-6.549,7.239
			c-2.085,2.385-4.165,4.789-6.019,7.361c-1.823,2.53-3.385,5.248-4.369,8.219c-0.98,2.957-1.361,6.147-1.325,9.255
			c0.074,6.515,1.83,12.812,3.719,18.996c0.679,2.221,1.351,4.443,1.99,6.675c0.086-2.557,0.265-5.111,0.553-7.654
			c1.723-15.211,6.837-29.934,13.59-43.611C114.394,404.165,117.816,398.096,121.414,392.137z"/>
		<path style="fill:#1D1D1B;" d="M123.983,391.615c-6.969,11.85-13.4,24.089-17.979,37.081c-2.277,6.462-4.076,13.095-5.231,19.852
			c-0.568,3.325-0.98,6.677-1.214,10.042c-0.119,1.714-0.195,3.433-0.215,5.151c-0.01,0.889-0.005,1.777,0.012,2.666
			c0.008,0.4,0.018,0.8,0.032,1.2c0.007,0.222,0.014,0.445,0.025,0.667l0.004,0.077c0.324-0.011,0.656-0.07,0.962-0.105
			c0.46-0.051,0.92-0.111,1.378-0.179c0.993-0.147,1.98-0.334,2.958-0.558c1.862-0.426,3.689-1.011,5.463-1.717
			c3.578-1.424,6.926-3.375,9.913-5.807c2.766-2.252,5.252-5.031,6.274-8.52c1.129-3.853,0.687-8.026,0.457-11.971
			c-0.475-8.151-1.147-16.296-1.263-24.463c-0.112-7.885,0.285-15.806,1.86-23.548c0.679-3.335,1.582-6.63,2.722-9.838
			c-0.29,0.423-0.594,0.836-0.899,1.249C127.474,385.792,125.704,388.689,123.983,391.615z"/>
		<path style="fill:#1D1D1B;" d="M106.284,393.728c4.132-1.093,8.271-2.333,12.077-4.312c4.044-2.102,7.218-5.151,9.812-8.873
			c2.052-2.944,3.889-6.049,5.718-9.149c-0.354,0.136-0.697,0.262-1.003,0.369c-2.991,1.041-6.087,1.753-9.181,2.411
			c-4.995,1.062-9.944,2.121-14.746,3.894c-4.4,1.624-8.636,3.685-12.625,6.153c-6.636,4.106-12.775,9.263-17.471,15.538
			c-0.358,0.702-0.717,1.403-1.075,2.105c4.726-1.53,9.472-2.994,14.251-4.348C96.77,396.174,101.534,394.984,106.284,393.728z"/>
		<path style="fill:#1D1D1B;" d="M138.784,358.152c0.051-0.162,0.096-0.326,0.145-0.489c0.345-1.872,0.647-3.752,0.876-5.643
			c0.03-0.249,0.047-0.498,0.074-0.747c-5.591-1.402-11.404-1.794-17.083-0.632c-2.725,0.557-5.369,1.483-7.863,2.712
			c-2.684,1.322-5.176,2.996-7.646,4.677c-2.494,1.697-5.015,3.382-7.287,5.376c-2.224,1.953-4.072,4.274-5.675,6.754
			c-1.58,2.444-2.913,5.039-4.237,7.628c-1.481,2.895-2.958,5.792-4.438,8.688c-1.383,2.707-2.766,5.415-4.149,8.122
			c1.047-1.312,2.155-2.58,3.345-3.792c3.26-3.32,6.86-6.298,10.814-8.757c3.99-2.481,8.258-4.522,12.669-6.134
			c4.836-1.768,9.829-2.845,14.855-3.908c2.658-0.562,5.313-1.158,7.902-1.993c1.695-0.547,3.706-1.091,4.813-2.499
			c-0.082-0.083-0.137-0.195-0.084-0.343C136.874,364.196,137.847,361.167,138.784,358.152z"/>
		<path style="fill:#1D1D1B;" d="M145.014,381.717c1.875-1.122,3.846-2.08,5.901-2.824c1.445-0.523,2.986-0.997,4.538-1.243
			c-0.741-1.357-1.482-2.714-2.223-4.072c-3.101-5.68-6.402-11.304-9.036-17.222c-0.671-1.506-1.283-3.044-1.827-4.606l-0.067,0.224
			c-0.196,0.729-0.397,1.456-0.616,2.179c-0.235,0.774-0.472,1.547-0.715,2.318c-0.625,4.846-1.67,9.643-2.986,14.348
			c-1.201,4.295-2.817,8.441-4.184,12.68c-0.703,2.18-1.269,4.416-1.463,6.703c-0.136,1.596-0.043,3.2,0.198,4.782
			c0.817-1.587,1.764-3.108,2.83-4.54C137.969,386.944,141.27,383.957,145.014,381.717z"/>
		<path style="fill:#1D1D1B;" d="M161.667,406.308c2.516-3.665,5.564-6.902,8.915-9.813c-4.268-3.256-8.123-7.171-10.921-11.729
			c-1.127-1.837-2.058-3.775-2.771-5.797l-0.055-0.007c-1.996,0.568-3.997,1.058-5.934,1.84
			c-7.733,3.122-14.166,9.254-17.565,16.872c-0.048,0.107-0.115,0.182-0.182,0.256c0.875,3.276,2.301,6.425,3.859,9.416
			c1.721,3.303,3.767,6.444,6.125,9.329c2.397,2.933,5.141,5.576,8.21,7.799c0.393,0.285,0.806,0.538,1.209,0.808
			c0.647-2.38,1.482-4.697,2.465-6.961C156.841,414.131,159.08,410.075,161.667,406.308z"/>
		<path style="fill:#1D1D1B;" d="M223.769,442.837c-0.45-0.788-0.662-1.837-0.909-2.581c-0.403-1.216-0.789-2.437-1.157-3.664
			c-1.296-4.31-2.299-8.703-3.115-13.128c-0.419-2.274-0.821-4.567-1.071-6.867c-0.185-1.702-0.376-3.788,0.129-5.535
			c-1.107-0.056-2.215-0.097-3.321-0.175c-14.274-1.007-28.712-4.23-40.773-12.259c-0.448-0.298-0.888-0.614-1.33-0.927
			c-1.947,1.632-3.771,3.386-5.497,5.25c-3.042,3.285-5.886,6.753-8.168,10.616c-2.261,3.828-3.918,7.968-5.299,12.184
			c2.876,1.854,5.936,3.409,8.983,4.962c3.691,1.881,7.313,3.847,10.714,6.223c3.253,2.272,6.354,4.759,9.663,6.953
			c3.139,2.081,6.549,3.915,10.243,4.77c4.316,0.998,8.779,0.716,13.105-0.07C212.118,447.473,218.099,445.497,223.769,442.837z"/>
		<path style="fill:#1D1D1B;" d="M229.952,443.323c0.748-0.903,1.569-1.755,2.426-2.568c-3.321,2.007-6.779,3.788-10.349,5.299
			c-3.191,1.35-6.472,2.488-9.817,3.395c-2.529,0.686-5.102,1.282-7.702,1.661c2.017,0.825,3.948,1.903,5.918,2.802
			c2.891,1.318,5.824,2.539,8.793,3.671c2.638,1.006,5.303,1.983,7.995,2.878c-0.428-1.814-0.791-3.645-0.925-5.505
			C225.982,450.634,227.184,446.665,229.952,443.323z"/>
		<path style="fill:#1D1D1B;" d="M271.164,451.652c-1.256-1.105-2.464-2.262-3.626-3.465c-4.072-4.217-7.256-9.095-10.005-14.253
			c-1.416-2.657-2.82-5.485-3.625-8.397c-0.262-0.949-0.416-1.974-0.396-2.979c-3.944,4.753-8.423,9.072-13.308,12.846l-0.102,0.267
			c-3.347,3.783-7.832,6.561-10.328,11.077c-2.513,4.547-1.634,9.593-0.448,14.392c2.712,0.847,5.452,1.596,8.226,2.17
			c5.741,1.189,11.605,1.501,17.368,0.292c4.804-1.008,9.408-2.992,13.556-5.6c1.922-1.208,3.746-2.563,5.49-4.015
			c-0.303-0.231-0.595-0.48-0.888-0.717C272.431,452.744,271.792,452.204,271.164,451.652z"/>
		<path style="fill:#1D1D1B;" d="M295.932,423.715c-1.519-0.516-3.021-1.082-4.503-1.696c-5.237-2.171-10.219-5.134-14.693-8.61
			c-2.269-1.762-4.565-3.555-6.607-5.581c-0.979-0.971-1.861-2.01-2.703-3.1c-0.548-0.709-1.096-1.456-1.729-2.108
			c-2.729,6.45-6.351,12.533-10.662,18.05c-0.107,0.138-0.221,0.271-0.329,0.408c-0.519,2.158,0.26,4.619,1.105,6.68
			c2.101,5.125,4.91,9.965,8.509,14.188c1.78,2.088,3.561,4.156,5.528,6.074c1.007,0.981,2.047,1.928,3.12,2.837
			c0.75,0.636,1.662,1.215,2.404,1.908c1.582-1.414,3.099-2.901,4.507-4.489c1.741-1.965,3.334-4.05,4.808-6.222
			c1.751-2.58,3.376-5.248,5.259-7.737c2.702-3.573,5.993-6.597,9.349-9.543c-0.363-0.1-0.723-0.226-1.07-0.328
			C297.455,424.221,296.692,423.973,295.932,423.715z"/>
		<path style="fill:#1D1D1B;" d="M320.772,394.937c-2.741,2.149-6.042,3.285-9.407,4.024c-7.422,1.63-15.156,2.163-22.74,1.921
			c-3.872-0.124-7.731-0.467-11.557-1.074c-3.21-0.509-6.406-1.164-9.507-2.136l-0.018,0.136c-0.472,1.368-0.991,2.72-1.54,4.059
			c0.788,0.585,1.465,1.275,2.102,2.066c1.017,1.263,2.069,2.471,3.258,3.578c4.15,3.865,9.116,6.854,14.154,9.412
			c2.517,1.278,5.124,2.41,7.75,3.442c1.297,0.51,2.609,0.983,3.933,1.417c0.722,0.237,1.448,0.463,2.174,0.684
			c0.62,0.188,1.229,0.309,1.724,0.731c0.457-0.398,0.914-0.797,1.368-1.196c4.329-3.808,8.291-7.931,11.689-12.599
			c3.762-5.167,6.791-10.845,9.057-16.813C322.462,393.434,321.665,394.237,320.772,394.937z"/>
		<path style="fill:#1D1D1B;" d="M312.525,388.691c-3.951-0.341-7.906-1.015-11.798-1.761c-3.933-0.755-7.839-1.663-11.672-2.828
			c-6.903-2.098-13.427-5.291-18.904-9.997c0.197,2.642,0.432,5.277,0.392,7.942c-0.056,3.775-0.512,7.52-1.599,11.143
			c-0.318,1.06-0.72,2.093-1.159,3.11c1.277,0.223,2.553,0.454,3.832,0.673c7.293,1.247,14.646,1.911,22.048,1.722
			c3.697-0.095,7.386-0.378,11.051-0.873c3.5-0.473,7.102-0.993,10.412-2.274c3.847-1.489,6.809-4.326,8.78-7.803
			C320.265,388.948,316.34,389.02,312.525,388.691z"/>
		<path style="fill:#1D1D1B;" d="M314.346,375.288c-7.613,2.02-15.635,2.157-23.418,1.159c-3.983-0.511-7.973-1.279-11.781-2.574
			c-3.292-1.12-6.747-2.722-9.193-5.294c-0.032,0.607-0.045,1.215-0.024,1.82c0.03,0.865,0.084,1.727,0.142,2.589
			c3.06,2.54,6.47,4.613,10.078,6.283c6.989,3.233,14.539,5.012,22.126,6.145c3.776,0.564,7.573,1.104,11.388,1.304
			c3.83,0.2,7.729-0.133,11.27-1.701l0.302-0.067c0.303-0.794,0.572-1.602,0.78-2.432c1.018-4.068,0.863-8.237-0.015-12.278
			C322.393,372.515,318.47,374.194,314.346,375.288z"/>
		<path style="fill:#1D1D1B;" d="M361.15,402.085c-0.575-2.767-1.508-5.424-2.642-8.009c-2.076-4.732-4.628-9.248-7.471-13.559
			c-2.798-4.244-5.95-8.289-9.444-11.984c-1.218-1.288-2.491-2.52-3.789-3.727c0.925,1.668,1.725,3.412,2.478,5.116
			c2.355,5.331,4.724,10.659,6.983,16.032c2.128,5.06,4.059,10.188,5.926,15.349c3.029,8.372,6.106,16.858,10.954,24.354
			c-1.359-4.979-1.465-10.305-1.902-15.412C362.01,407.51,361.709,404.775,361.15,402.085z"/>
		<path style="fill:#1D1D1B;" d="M363.134,376.327c-4.586-3.655-9.761-6.621-14.944-9.336c-2.925-1.531-5.911-2.954-8.954-4.234
			c-1.078-0.454-2.168-0.879-3.256-1.308c0.61,0.45,1.212,0.914,1.804,1.396c2.22,1.81,4.324,3.761,6.317,5.817
			c7.322,7.554,13.337,16.569,17.235,26.363c2.097,5.27,2.816,10.807,3.26,16.423c0.358,4.528,0.758,9.014,1.622,13.455
			c2.508-5.566,4.858-11.23,6.282-17.171c1.456-6.075,2.225-13.007,0.181-19.042C370.961,383.616,367.254,379.611,363.134,376.327z"
			/>
		<path style="fill:#1D1D1B;" d="M395.252,378.786c-9.478,0.558-18.842-1.068-27.776-4.191c-2.249-0.786-4.457-1.689-6.642-2.645
			c4.199,2.792,8.098,6.047,10.891,10.056c0.357-0.231,0.831-0.279,1.269,0.049c2.629,1.964,5.892,2.69,9.119,2.853
			c8.6,0.434,17.361-2.609,24.215-7.871c-1.125,0.292-2.259,0.549-3.385,0.773C400.406,378.314,397.834,378.634,395.252,378.786z"/>
		<path style="fill:#1D1D1B;" d="M364.708,367.047c-4.985-0.984-9.946-2.077-14.886-3.262c-2.415-0.579-4.832-1.166-7.228-1.823
			c1.16,0.6,2.323,1.195,3.487,1.788c1.431,0.679,2.847,1.391,4.251,2.126c1.723,0.845,3.452,1.677,5.198,2.47
			c4.459,2.024,9.137,3.609,13.841,4.954c4.479,1.28,9.055,2.232,13.676,2.818c4.487,0.569,9.023,0.715,13.531,0.324
			c2.248-0.195,4.485-0.521,6.693-0.988c1.664-0.353,3.282-0.827,4.898-1.329c-4.461-1.102-9.021-1.791-13.572-2.391
			C384.591,370.415,374.614,369.002,364.708,367.047z"/>
		<path style="fill:#1D1D1B;" d="M241.339,102.304c0.382,3.339,0.681,6.716,0.709,10.079c0.008,0.92,0.008,1.843-0.006,2.765
			c0.134-0.2,0.271-0.397,0.401-0.599c1.141-1.772,2.293-3.602,2.981-5.605c1.13-3.285,0.636-6.788-0.036-10.117
			c-0.647-3.205-1.573-6.368-2.739-9.422c-1.164-3.047-2.624-5.989-4.303-8.785c-0.815-1.357-1.691-2.677-2.603-3.97
			c0.654,1.991,1.27,3.994,1.824,6.015C239.334,89.102,240.581,95.672,241.339,102.304z"/>
		<path style="fill:#1D1D1B;" d="M235.85,110.147c0.599,1.348,1.231,2.686,1.859,4.026c0.762,1.324,1.48,2.673,2.176,4.032
			c0.073-0.101,0.147-0.201,0.22-0.302c-0.007-0.598-0.025-1.192-0.048-1.763c-0.076-1.868-0.17-3.735-0.27-5.601
			c-0.648-12.006-2.95-23.868-6.865-35.228c-0.8,2.594-1.229,5.312-1.678,7.976c-0.485,2.874-0.935,5.764-0.984,8.684
			c-0.051,3.089,0.469,6.022,1.601,8.899C233.092,103.998,234.484,107.074,235.85,110.147z"/>
		<path style="fill:#1D1D1B;" d="M220.923,98.732c3.76,3.473,7.413,7.094,10.692,11.03c1.308,1.57,2.542,3.192,3.739,4.839
			l-0.01-0.022c-1.44-2.454-2.983-4.847-4.639-7.162c-5.832-8.151-13.063-15.724-21.506-21.188
			c-5.674-3.672-12.17-6.357-18.895-7.157c2.218,0.779,4.396,1.675,6.524,2.684C205.76,85.993,213.69,92.052,220.923,98.732z"/>
		<path style="fill:#1D1D1B;" d="M198.975,104.351c4.072,2.813,8.958,3.963,13.747,4.88c4.952,0.947,9.86,1.834,14.564,3.714
			c2.365,0.945,4.664,2.05,6.864,3.333c0.24,0.14,0.474,0.29,0.712,0.434c-1.878-2.418-3.786-4.812-5.859-7.067
			c-6.659-7.242-14.082-13.976-22.202-19.546c-7.257-4.978-15.253-8.887-23.855-10.792c2.423,4.439,4.856,8.873,7.323,13.288
			C192.647,96.852,194.848,101.5,198.975,104.351z"/>
		<path style="fill:#1D1D1B;" d="M414.116,146.311c-4.076-1.328-8.241-2.279-12.505-2.775c-7.365-0.858-14.825-0.24-21.785,2.395
			c-4.151,1.572-8.005,3.783-11.372,6.605c-0.854,0.57-1.672,1.189-2.425,1.898c-1.034,0.974-1.904,2.071-2.7,3.224
			c-0.042-0.001-0.085-0.007-0.124-0.028c-2.045,2.749-3.888,5.606-5.622,8.554c0.238-0.011,0.476-0.012,0.714-0.027
			c4.683-0.301,8.92-2.137,12.723-4.822c1.905-1.346,3.691-2.853,5.408-4.431c1.397-1.285,2.72-2.814,4.323-3.868
			c0.154-0.182,0.341-0.291,0.549-0.331c0.138-0.077,0.273-0.16,0.415-0.229c0.486-0.236,0.997,0.321,0.834,0.791
			c0.161,0.267,0.22,0.598,0.064,0.971c-0.83,1.986-1.663,3.972-2.503,5.954c-0.322,1.079-0.72,2.139-1.102,3.199
			c-0.633,1.756-1.348,3.487-2.101,5.195l-0.011,0.024c2.889-0.004,5.775,0.075,8.655,0.335c2.814,0.254,5.639,0.664,8.413,1.196
			c2.804,0.538,5.482,1.255,8.091,2.437c2.6,1.178,5.089,2.569,7.583,3.951l3.798,2.104l1.96,1.086
			c0.194,0.107,0.391,0.211,0.585,0.317c0.229-3.07,0.391-6.145,0.514-9.216c0.136-3.403,0.223-6.808,0.301-10.212
			c0.071-3.118,0.332-6.363-0.409-9.424C415.959,149.413,415.164,147.777,414.116,146.311z"/>
		<path style="fill:#1D1D1B;" d="M263.734,168.091c0.003,0.008,0.006,0.016,0.009,0.024c0.438,2.807,1.141,5.569,2.175,8.221
			c1.652,4.24,4.047,8.046,6.969,11.523c1.584,1.884,3.267,3.684,4.956,5.473c0.229,0.242,0.462,0.481,0.694,0.721
			c0.015-1.406,0.184-2.81,0.486-4.212c0.9-4.182,2.714-8.143,4.887-11.805c2.224-3.746,5.193-6.98,8.159-10.147
			c-0.621-0.576-1.245-1.148-1.856-1.734c-1.79-1.719-3.389-3.56-4.605-5.732c-0.205-0.367-0.371-0.75-0.554-1.127
			c-0.098,0.122-0.243,0.202-0.434,0.2c-3.888-0.035-7.709,0.627-11.52,1.298c-1.933,0.34-3.745,0.959-5.548,1.73
			c-1.444,0.618-2.811,1.466-4.245,2.11c0.012,0.165,0.035,0.329,0.053,0.493C262.973,165.952,263.488,167.411,263.734,168.091z"/>
		<path style="fill:#1D1D1B;" d="M275.376,367.872c0.209-0.871,0.296-1.772,0.281-2.668c0.427-1.199,0.068-2.594-0.2-3.796
			c-0.141-0.629-0.303-1.254-0.49-1.871c-0.089-0.295-0.185-0.589-0.285-0.88c-0.051-0.147-0.101-0.291-0.17-0.43
			c-0.098-0.2-0.24-0.325-0.352-0.461c-0.13-0.157-0.285-0.248-0.444-0.292c-0.258-0.697-0.519-1.393-0.757-2.087
			c-1.008-2.936-1.727-5.977-2.181-9.047c-0.917-6.207-0.852-12.525-0.49-18.774c0.392-6.764,1.163-13.5,1.474-20.27
			c0.285-6.207,0.169-12.528-1.25-18.605c-1.315-5.632-3.969-10.823-8.168-14.846c-2.118-2.03-4.499-3.79-7.002-5.315
			c-2.223-1.354-4.664-2.51-7.228-3.028c-2.37-0.479-5.054-0.428-7.135,0.96c-0.461,0.308-1.113,0.793-1.058,1.418
			c0.045,0.512,0.58,0.937,0.938,1.247c0.743,0.643,1.521,1.244,2.307,1.834l0.031,0.01c0.14,0.046,0.227,0.131,0.289,0.228
			c0.414,0.308,0.826,0.617,1.241,0.921c2.341,1.72,4.625,3.479,6.698,5.521c1.893,1.865,3.638,3.877,5.2,6.026
			c3.105,4.271,5.567,9.067,7.103,14.123c0.259,0.854,0.494,1.721,0.715,2.592c0.539,1.564,1.035,3.141,1.454,4.728
			c0.464,1.752,0.825,3.527,0.962,5.337c0.138,1.83,0.083,3.671-0.002,5.502c-0.172,3.703-0.284,7.386-0.16,11.093
			c0.249,7.45,1.052,14.889,1.912,22.289c0.405,3.48,0.989,6.914,2.216,10.208C271.938,362.526,273.472,365.318,275.376,367.872z"/>
		<path style="fill:#1D1D1B;" d="M375.413,165.359c1.111-2.492,2.182-5.001,3.242-7.515c-0.543,0.513-1.077,1.037-1.634,1.535
			c-1.976,1.769-4.054,3.436-6.301,4.849c-2,1.257-4.126,2.335-6.379,3.06c-2.517,0.81-5.1,1.134-7.738,1.164
			c-2.939,0.034-5.884-0.074-8.823-0.125c-3.031-0.053-6.065-0.073-9.095-0.175c-2.64-0.088-5.243-0.365-7.823-0.899
			c-1.159-0.619-2.588-0.86-3.84-1.197c-1.341-0.361-2.671-0.76-3.997-1.174c-0.484-0.151-0.97-0.294-1.454-0.444
			c-0.136-0.086-0.274-0.169-0.412-0.246c-0.496-0.277-1.037-0.471-1.583-0.624c-0.338-0.094-0.673-0.164-1.011-0.227
			c-0.224-0.233-0.484-0.41-0.825-0.49l-0.061-0.004c-1.395-0.604-2.781-1.23-4.143-1.906c-1.716-0.851-3.361-1.825-4.973-2.853
			c-0.762-0.385-1.505-0.832-2.293-1.141c-1.25-0.492-2.617-0.786-3.964-0.78c-2.162,0.01-4.136,0.684-5.879,1.841
			c3.215,0.744,5.783,2.972,8.069,5.36c0.322,0.337,0.642,0.671,0.963,1.008c-0.006,0.174,0.001,0.345,0.081,0.545
			c0.092,0.231,0.232,0.444,0.391,0.634c0.178,0.213,0.373,0.4,0.586,0.577c0.051,0.043,0.101,0.088,0.151,0.133
			c0.09,0.122,0.191,0.241,0.291,0.355c0.461,0.524,1.074,0.849,1.701,1.137c0.061,0.028,0.126,0.048,0.188,0.073
			c1.352,1.324,2.753,2.597,4.28,3.758c5.733,4.36,12.085,7.7,18.95,9.897c6.845,2.191,14.321,3.43,21.519,3.055
			c3.559-0.185,7.178-0.893,10.232-2.818c2.802-1.767,4.984-4.289,6.784-7.042C372.527,171.752,373.991,168.548,375.413,165.359z"/>
	</g>
</g>
</svg>
